<svg aria-hidden="true" style="position: absolute; width: 0; height: 0; overflow: hidden;" version="1.1" xmlns="http://www.w3.org/2000/svg" xmlns:xlink="http://www.w3.org/1999/xlink">
<defs>
<symbol id="icon-Nextjs-2" viewBox="0 0 53 32">
<path d="M12.63 8.421h10.054v0.795h-9.132v5.985h8.588v0.795h-8.588v6.571h9.237v0.795h-10.159v-14.943zM23.585 8.421h1.068l4.734 6.571 4.838-6.571 6.581-8.347-10.812 15.609 5.572 7.681h-1.11l-5.069-6.99-5.090 6.99h-1.089l5.613-7.681-5.236-7.262zM35.964 9.216v-0.795h11.457v0.795h-5.278v14.147h-0.922v-14.147h-5.257z"></path>
<path d="M0.052 8.421h1.152l15.886 23.657-6.565-8.715-9.509-13.812-0.042 13.812h-0.922z"></path>
<path d="M47.328 22.328c0.191 0 0.33-0.145 0.33-0.333s-0.139-0.333-0.33-0.333c-0.188 0-0.33 0.145-0.33 0.333s0.141 0.333 0.33 0.333zM48.234 21.453c0 0.554 0.401 0.916 0.986 0.916 0.623 0 1-0.373 1-1.021v-2.281h-0.502v2.278c0 0.36-0.182 0.552-0.502 0.552-0.287 0-0.482-0.179-0.489-0.445h-0.493zM50.877 21.424c0.036 0.576 0.518 0.945 1.235 0.945 0.767 0 1.246-0.386 1.246-1.003 0-0.485-0.273-0.753-0.937-0.907l-0.356-0.087c-0.421-0.098-0.592-0.23-0.592-0.46 0-0.29 0.264-0.48 0.661-0.48 0.377 0 0.637 0.185 0.684 0.482h0.489c-0.029-0.543-0.509-0.925-1.166-0.925-0.706 0-1.177 0.382-1.177 0.956 0 0.474 0.267 0.755 0.852 0.891l0.417 0.101c0.428 0.101 0.616 0.248 0.616 0.494 0 0.286-0.296 0.494-0.699 0.494-0.433 0-0.733-0.194-0.776-0.5h-0.498z"></path>
</symbol>
<symbol id="icon-javascript-2" viewBox="0 0 32 32">
<path d="M2 2v28h28v-28zM17 23.75c0 2.726-1.61 4.054-3.941 4.054-2.105 0-3.327-1.090-3.947-2.406v0l2.143-1.297c0.413 0.733 0.727 1.353 1.629 1.353 0.75 0 1.366-0.338 1.366-1.654v-8.801h2.75zM23.209 27.742c-2.443 0-4.022-1.102-4.793-2.625v0l2.146-1.242c0.563 0.921 1.297 1.535 2.594 1.535 1.090 0 1.723-0.483 1.723-1.234 0-0.902-0.652-1.221-1.855-1.75l-0.657-0.282c-1.899-0.808-3.157-1.823-3.157-3.966 0-1.973 1.503-3.414 3.852-3.414 1.673 0 2.875 0.52 3.741 2.043l-2.053 1.319c-0.451-0.808-0.938-1.125-1.691-1.125-0.771 0-1.259 0.489-1.259 1.125 0 0.789 0.489 1.109 1.616 1.598l0.657 0.282c2.237 0.959 3.496 1.938 3.496 4.135 0.001 2.369-1.86 3.602-4.36 3.602z"></path>
</symbol>
<symbol id="icon-nodejs-2" viewBox="0 0 32 32">
<path d="M16 29.313c-0.367 0-0.709-0.099-1.029-0.269l-3.252-1.931c-0.487-0.271-0.243-0.369-0.096-0.419 0.661-0.22 0.784-0.268 1.468-0.657 0.075-0.049 0.172-0.027 0.247 0.023l2.493 1.493c0.099 0.048 0.221 0.048 0.295 0l9.759-5.649c0.099-0.048 0.147-0.147 0.147-0.269v-11.277c0-0.121-0.048-0.22-0.147-0.268l-9.759-5.625c-0.097-0.049-0.22-0.049-0.295 0l-9.761 5.624c-0.097 0.048-0.147 0.172-0.147 0.268v11.276c0 0.097 0.049 0.221 0.147 0.269l2.667 1.543c1.443 0.731 2.349-0.127 2.349-0.98v-11.128c0-0.147 0.121-0.295 0.293-0.295h1.248c0.144 0 0.293 0.123 0.293 0.295v11.129c0 1.932-1.051 3.059-2.885 3.059-0.563 0-1.003 0-2.251-0.613l-2.567-1.465c-0.619-0.365-1.028-1.028-1.028-1.787v0-11.277c0-0.733 0.391-1.419 1.028-1.785l9.755-5.649c0.298-0.162 0.652-0.258 1.029-0.258s0.731 0.096 1.041 0.264l-0.011-0.006 9.756 5.649c0.639 0.365 1.028 1.052 1.028 1.785v11.277c0 0.732-0.391 1.417-1.028 1.787l-9.756 5.648c-0.321 0.147-0.688 0.22-1.031 0.22zM19.008 21.559c-4.28 0-5.16-1.957-5.16-3.619 0-0.147 0.123-0.295 0.293-0.295h1.272c0.147 0 0.268 0.097 0.268 0.245 0.196 1.295 0.757 1.932 3.352 1.932 2.053 0 2.936-0.467 2.936-1.567 0-0.636-0.247-1.1-3.449-1.417-2.665-0.267-4.328-0.857-4.328-2.984 0-1.98 1.663-3.155 4.452-3.155 3.129 0 4.671 1.079 4.865 3.424-0.003 0.083-0.030 0.159-0.075 0.221l0.001-0.001c-0.049 0.048-0.121 0.097-0.195 0.097h-1.271c-0.131-0.003-0.24-0.094-0.269-0.217l-0-0.002c-0.295-1.349-1.052-1.787-3.056-1.787-2.252 0-2.521 0.783-2.521 1.369 0 0.708 0.316 0.928 3.352 1.32 3.008 0.391 4.427 0.953 4.427 3.059-0.027 2.153-1.785 3.375-4.893 3.375z"></path>
</symbol>
<symbol id="icon-graphql-2" viewBox="0 0 32 32">
<path d="M18.735 3.668l6.58 3.8c1.088-1.145 2.897-1.191 4.043-0.103 0.197 0.187 0.365 0.401 0.503 0.636 0.785 1.371 0.309 3.119-1.061 3.904-0.232 0.133-0.481 0.233-0.744 0.297v7.599c1.528 0.364 2.472 1.897 2.107 3.425-0.064 0.272-0.169 0.533-0.309 0.775-0.789 1.364-2.535 1.832-3.903 1.043-0.261-0.151-0.5-0.345-0.701-0.572l-6.54 3.776c0.496 1.499-0.317 3.113-1.815 3.608-0.289 0.095-0.589 0.144-0.893 0.144-1.575 0.001-2.852-1.273-2.853-2.848 0-0.273 0.039-0.547 0.117-0.812l-6.581-3.796c-1.088 1.139-2.895 1.183-4.035 0.093-1.139-1.088-1.181-2.895-0.093-4.035 0.377-0.396 0.861-0.675 1.392-0.804l0.001-7.599c-1.533-0.368-2.477-1.911-2.108-3.445 0.063-0.264 0.164-0.519 0.299-0.755 0.789-1.365 2.536-1.832 3.903-1.043 0.236 0.135 0.452 0.304 0.64 0.503l6.584-3.8c-0.448-1.511 0.415-3.096 1.921-3.543 0.263-0.079 0.539-0.117 0.813-0.117 1.575-0.001 2.852 1.272 2.853 2.845 0.001 0.279-0.040 0.557-0.119 0.823zM18.048 4.837c-0.025 0.028-0.049 0.052-0.077 0.077l8.615 14.92c0.035-0.012 0.075-0.021 0.109-0.031v-7.609c-1.527-0.377-2.456-1.923-2.077-3.451 0.008-0.032 0.016-0.065 0.025-0.096l-6.595-3.811zM14.028 4.916l-0.080-0.080-6.595 3.803c0.436 1.513-0.436 3.091-1.948 3.527-0.035 0.011-0.068 0.019-0.101 0.028v7.611l0.112 0.031 8.612-14.919zM16.796 5.592c-0.52 0.149-1.071 0.149-1.589 0l-8.613 14.919c0.392 0.377 0.669 0.86 0.8 1.388h17.215c0.129-0.531 0.409-1.015 0.804-1.392l-8.616-14.915zM18.111 27.228l6.551-3.784c-0.020-0.063-0.036-0.125-0.051-0.189h-17.221l-0.028 0.111 6.585 3.803c0.517-0.539 1.245-0.871 2.053-0.871 0.836 0 1.587 0.359 2.111 0.931z"></path>
</symbol>
<symbol id="icon-postgresql-2" viewBox="0 0 32 32">
<path d="M22.837 0c-1.312 0.010-2.575 0.206-3.769 0.562l0.096-0.024-0.084 0.027c-0.677-0.126-1.464-0.205-2.267-0.22l-0.013-0c-1.571-0.027-2.92 0.355-4.008 0.989-1.072-0.372-3.296-1.013-5.64-0.885-1.632 0.089-3.413 0.585-4.733 1.979-1.316 1.393-2.012 3.549-1.865 6.483 0.040 0.809 0.271 2.129 0.653 3.839s0.92 3.711 1.591 5.536c0.671 1.827 1.405 3.467 2.553 4.581 0.573 0.559 1.363 1.028 2.293 0.989 0.653-0.027 1.244-0.313 1.753-0.736 0.248 0.327 0.513 0.469 0.755 0.601 0.304 0.167 0.6 0.28 0.907 0.355 0.551 0.137 1.493 0.321 2.597 0.133 0.376-0.063 0.772-0.185 1.167-0.36 0.015 0.44 0.032 0.871 0.049 1.307 0.055 1.381 0.089 2.657 0.504 3.776 0.067 0.183 0.249 1.124 0.969 1.955 0.72 0.832 2.131 1.351 3.737 1.007 1.133-0.243 2.575-0.68 3.532-2.043 0.947-1.347 1.373-3.279 1.457-6.412 0.021-0.169 0.047-0.313 0.073-0.448l0.225 0.020h0.027c1.209 0.055 2.521-0.117 3.617-0.627 0.971-0.449 1.705-0.904 2.24-1.711 0.133-0.2 0.28-0.441 0.32-0.857s-0.199-1.067-0.595-1.367c-0.793-0.603-1.292-0.373-1.827-0.263-0.476 0.11-1.027 0.18-1.592 0.194l-0.010 0c1.541-2.596 2.647-5.353 3.277-7.793 0.373-1.44 0.583-2.768 0.6-3.929s-0.077-2.189-0.773-3.079c-2.175-2.779-5.232-3.547-7.597-3.573-0.073-0.001-0.147-0.003-0.22-0.001zM22.775 0.853c2.237-0.021 5.096 0.607 7.148 3.229 0.461 0.589 0.599 1.451 0.583 2.512-0.017 1.060-0.213 2.329-0.572 3.72-0.696 2.693-2.011 5.833-3.863 8.651 0.061 0.044 0.13 0.082 0.204 0.112l0.007 0.002c0.387 0.16 1.268 0.297 3.027-0.064 0.443-0.093 0.767-0.156 1.103 0.1 0.15 0.128 0.245 0.317 0.245 0.529 0 0.013-0 0.026-0.001 0.040l0-0.002c-0.019 0.17-0.081 0.323-0.175 0.451l0.002-0.003c-0.34 0.511-1.011 0.995-1.871 1.393-0.761 0.355-1.853 0.54-2.821 0.551-0.485 0.005-0.933-0.032-1.313-0.151l-0.024-0.009c-0.147 1.413-0.484 4.204-0.704 5.477-0.176 1.027-0.484 1.843-1.072 2.453-0.587 0.611-1.417 0.979-2.535 1.219-1.384 0.297-2.393-0.023-3.044-0.571-0.649-0.547-0.947-1.272-1.125-1.716-0.123-0.307-0.187-0.704-0.248-1.235s-0.107-1.18-0.137-1.912c-0.029-0.745-0.045-1.619-0.045-2.497 0-0.305 0.002-0.609 0.006-0.913l-0 0.046c-0.558 0.512-1.263 0.872-2.045 1.010l-0.024 0.004c-0.919 0.156-1.739 0.003-2.228-0.12-0.264-0.067-0.494-0.159-0.709-0.276l0.016 0.008c-0.227-0.121-0.443-0.259-0.587-0.529-0.057-0.103-0.091-0.227-0.091-0.358 0-0.053 0.006-0.105 0.016-0.155l-0.001 0.005c0.047-0.18 0.15-0.332 0.289-0.44l0.002-0.001c0.264-0.215 0.613-0.335 1.14-0.444 0.959-0.197 1.293-0.332 1.497-0.493 0.173-0.139 0.369-0.419 0.716-0.829-0.001-0.013-0.003-0.032-0.004-0.051l-0-0.004c-0.653-0.019-1.261-0.193-1.794-0.488l0.020 0.010c-0.2 0.211-1.221 1.291-2.467 2.789-0.524 0.627-1.103 0.987-1.713 1.012-0.611 0.027-1.163-0.281-1.632-0.736-0.937-0.911-1.685-2.477-2.337-4.248-0.651-1.771-1.18-3.743-1.556-5.423-0.377-1.68-0.6-3.035-0.632-3.688-0.14-2.776 0.509-4.647 1.623-5.827 1.115-1.18 2.643-1.627 4.132-1.712 2.673-0.153 5.212 0.779 5.725 0.979 0.989-0.672 2.264-1.091 3.856-1.064 0.801 0.012 1.572 0.117 2.31 0.305l-0.068-0.015 0.027-0.012c0.257-0.095 0.587-0.194 0.923-0.273l0.062-0.012c0.825-0.201 1.776-0.322 2.753-0.335l0.008-0zM22.977 1.747h-0.195c-0.811 0.012-1.594 0.104-2.349 0.27l0.077-0.014c1.661 0.736 2.916 1.869 3.8 3 0.585 0.739 1.091 1.583 1.481 2.487l0.028 0.073c0.147 0.352 0.245 0.649 0.301 0.88 0.028 0.116 0.047 0.213 0.053 0.315 0.003 0.051 0.005 0.103-0.016 0.192 0 0.004-0.007 0.013-0.008 0.017 0.040 1.168-0.249 1.96-0.284 3.075-0.027 0.808 0.18 1.757 0.231 2.793 0.048 0.973-0.069 2.043-0.701 3.092 0.053 0.064 0.101 0.128 0.152 0.192 1.672-2.633 2.877-5.547 3.52-8.031 0.344-1.337 0.527-2.549 0.543-3.509 0.013-0.96-0.165-1.656-0.393-1.947-1.789-2.288-4.211-2.871-6.24-2.887zM16.591 2.088c-1.576 0.004-2.707 0.48-3.564 1.193-0.884 0.737-1.477 1.747-1.867 2.78-0.463 1.227-0.621 2.413-0.684 3.219l0.017-0.011c0.476-0.267 1.101-0.533 1.771-0.688 0.669-0.153 1.391-0.201 2.044 0.052s1.193 0.849 1.389 1.753c0.939 4.343-0.292 5.957-0.745 7.176-0.144 0.351-0.295 0.801-0.42 1.261l-0.021 0.090c0.057-0.013 0.115-0.029 0.172-0.035 0.32-0.027 0.571 0.080 0.72 0.144 0.456 0.189 0.769 0.587 0.939 1.040 0.044 0.119 0.076 0.247 0.095 0.379 0.017 0.046 0.027 0.098 0.027 0.153 0 0.006-0 0.011-0 0.017l0-0.001c-0.022 0.666-0.034 1.45-0.034 2.236 0 0.966 0.019 1.928 0.056 2.885l-0.004-0.138c0.031 0.717 0.076 1.349 0.133 1.848 0.057 0.497 0.139 0.876 0.191 1.004 0.171 0.427 0.42 0.985 0.871 1.365 0.451 0.379 1.097 0.632 2.279 0.379 1.024-0.22 1.656-0.525 2.079-0.964 0.421-0.439 0.673-1.049 0.835-1.984 0.241-1.4 0.727-5.46 0.785-6.224-0.027-0.576 0.059-1.019 0.243-1.356 0.189-0.347 0.483-0.559 0.736-0.673 0.127-0.057 0.245-0.096 0.343-0.124-0.119-0.17-0.225-0.311-0.336-0.448l0.012 0.015c-0.35-0.422-0.648-0.905-0.873-1.427l-0.015-0.039c-0.136-0.279-0.25-0.49-0.371-0.697l0.028 0.052c-0.177-0.32-0.401-0.72-0.636-1.169-0.469-0.9-0.98-1.991-1.245-3.053-0.264-1.061-0.303-2.16 0.375-2.935 0.6-0.688 1.653-0.973 3.235-0.813-0.047-0.14-0.075-0.256-0.153-0.443-0.386-0.898-0.851-1.672-1.405-2.374l0.017 0.022c-1.34-1.713-3.509-3.412-6.861-3.467h-0.153zM7.735 2.157c-0.169 0-0.339 0.005-0.507 0.015-1.347 0.077-2.62 0.468-3.531 1.433-0.912 0.965-1.512 2.548-1.381 5.168 0.025 0.496 0.241 1.885 0.612 3.536 0.369 1.651 0.893 3.593 1.523 5.309 0.631 1.716 1.395 3.209 2.12 3.916 0.365 0.353 0.683 0.496 0.971 0.484 0.289-0.013 0.637-0.18 1.063-0.691 0.836-1.006 1.625-1.895 2.44-2.759l-0.026 0.028c-0.986-0.86-1.606-2.118-1.606-3.521 0-0.24 0.018-0.475 0.053-0.705l-0.003 0.026c0.137-0.985 0.156-1.907 0.14-2.635-0.016-0.709-0.067-1.181-0.067-1.476-0-0.004-0-0.008-0-0.013s0-0.009 0-0.013v0.001-0.007l-0.001-0.008v-0.001c0-0.002 0-0.004 0-0.007 0-1.613 0.289-3.158 0.819-4.586l-0.030 0.091c0.373-0.992 0.929-2 1.763-2.816-0.819-0.269-2.272-0.68-3.845-0.757-0.151-0.008-0.328-0.013-0.506-0.013h-0.001zM24.265 9.2c-0.905 0.012-1.413 0.245-1.68 0.551-0.377 0.433-0.413 1.193-0.179 2.129 0.233 0.937 0.716 1.985 1.169 2.856 0.227 0.436 0.447 0.828 0.624 1.147 0.179 0.32 0.309 0.547 0.389 0.74 0.073 0.179 0.155 0.336 0.237 0.483 0.351-0.74 0.413-1.467 0.377-2.224-0.047-0.937-0.264-1.896-0.232-2.867 0.036-1.135 0.26-1.873 0.28-2.751-0.296-0.040-0.639-0.064-0.986-0.064h-0zM13.287 9.353c-0.293 0.003-0.576 0.039-0.847 0.104l0.026-0.005c-0.583 0.144-1.095 0.349-1.569 0.615l0.031-0.016c-0.177 0.096-0.33 0.197-0.472 0.309l0.007-0.005-0.029 0.027c0.008 0.195 0.047 0.667 0.063 1.361 0.016 0.76-0.003 1.729-0.149 2.779-0.319 2.28 1.336 4.168 3.28 4.171 0.113-0.468 0.3-0.943 0.487-1.443 0.541-1.459 1.607-2.523 0.709-6.675-0.147-0.68-0.437-0.955-0.837-1.109-0.195-0.071-0.42-0.112-0.655-0.112-0.015 0-0.030 0-0.046 0.001l0.002-0zM23.843 9.625h0.067c0.088 0.003 0.169 0.012 0.24 0.029 0.072 0.016 0.133 0.040 0.184 0.073s0.088 0.084 0.1 0.145l0 0.001-0.001 0.011c0 0.004 0 0.009 0 0.013 0 0.062-0.017 0.119-0.048 0.168l0.001-0.001c-0.041 0.076-0.090 0.142-0.147 0.2l0-0c-0.132 0.145-0.309 0.246-0.509 0.282l-0.005 0.001c-0.028 0.004-0.061 0.006-0.094 0.006-0.169 0-0.326-0.054-0.455-0.145l0.002 0.002c-0.066-0.045-0.123-0.097-0.172-0.156l-0.001-0.001c-0.042-0.046-0.071-0.103-0.084-0.167l-0-0.002c-0.001-0.006-0.001-0.013-0.001-0.020 0-0.058 0.022-0.11 0.057-0.15l-0 0c0.043-0.049 0.095-0.089 0.153-0.119l0.003-0.001c0.128-0.072 0.301-0.125 0.497-0.155 0.073-0.011 0.145-0.016 0.213-0.017zM13.416 9.849c0.071 0 0.145 0.007 0.221 0.017 0.204 0.028 0.385 0.083 0.524 0.163 0.069 0.037 0.128 0.084 0.177 0.141l0.001 0.001c0.046 0.052 0.074 0.121 0.074 0.196 0 0.011-0.001 0.022-0.002 0.032l0-0.001c-0.014 0.080-0.049 0.15-0.1 0.206l0-0c-0.055 0.067-0.117 0.124-0.188 0.171l-0.003 0.002c-0.137 0.098-0.308 0.157-0.493 0.157-0.037 0-0.073-0.002-0.108-0.007l0.004 0c-0.223-0.038-0.417-0.147-0.559-0.303l-0.001-0.001c-0.061-0.063-0.113-0.135-0.155-0.214l-0.002-0.005c-0.036-0.056-0.057-0.124-0.057-0.198 0-0.014 0.001-0.027 0.002-0.040l-0 0.002c0.020-0.144 0.139-0.219 0.255-0.26 0.105-0.035 0.226-0.055 0.351-0.055 0.020 0 0.041 0.001 0.061 0.002l-0.003-0zM25.496 19.64l-0.004 0.001c-0.196 0.071-0.357 0.1-0.493 0.16-0.139 0.055-0.25 0.155-0.317 0.282l-0.002 0.003c-0.084 0.153-0.156 0.425-0.135 0.888 0.057 0.039 0.122 0.071 0.193 0.092l0.005 0.001c0.228 0.069 0.611 0.115 1.037 0.108 0.851-0.009 1.897-0.208 2.453-0.467 0.481-0.226 0.895-0.5 1.263-0.825l-0.006 0.005h-0.001c-1.857 0.384-2.907 0.281-3.551 0.016-0.169-0.071-0.315-0.161-0.446-0.269l0.003 0.002zM14.788 19.765h-0.028c-0.071 0.007-0.173 0.031-0.372 0.251-0.464 0.52-0.627 0.847-1.009 1.152-0.383 0.304-0.88 0.467-1.873 0.671-0.315 0.064-0.495 0.135-0.615 0.192 0.039 0.032 0.035 0.040 0.093 0.071 0.145 0.080 0.332 0.151 0.483 0.189 0.427 0.107 1.128 0.231 1.86 0.107 0.732-0.125 1.493-0.476 2.143-1.387 0.112-0.157 0.124-0.389 0.032-0.639-0.093-0.249-0.297-0.464-0.441-0.524-0.079-0.039-0.171-0.067-0.268-0.080l-0.004-0z"></path>
</symbol>
<symbol id="icon-react-2" viewBox="0 0 32 32">
<path d="M18.38 14.993c0 1.314-1.066 2.38-2.38 2.38s-2.38-1.066-2.38-2.38c0-1.314 1.066-2.38 2.38-2.38s2.38 1.066 2.38 2.38z"></path>
<path d="M9.336 19.725l-0.527-0.135c-3.912-0.988-6.156-2.668-6.156-4.603 0-1.936 2.245-3.615 6.156-4.603l0.527-0.133 0.148 0.521c0.453 1.55 0.968 2.87 1.582 4.132l-0.068-0.154 0.113 0.237-0.113 0.237c-0.613 1.284-1.121 2.615-1.515 3.98l-0.148 0.52zM8.567 11.599c-2.972 0.837-4.797 2.115-4.797 3.389 0 1.272 1.824 2.551 4.797 3.387 0.364-1.157 0.804-2.289 1.313-3.387-0.445-0.919-0.89-2.041-1.26-3.197l-0.053-0.192zM22.663 19.725l-0.147-0.523c-0.454-1.552-0.97-2.871-1.584-4.134l0.068 0.155-0.113-0.236 0.113-0.239c0.613-1.281 1.119-2.613 1.516-3.979l0.147-0.52 0.527 0.133c3.913 0.988 6.156 2.667 6.156 4.604 0 1.936-2.244 3.615-6.156 4.603l-0.527 0.135zM22.116 14.988c0.533 1.155 0.977 2.291 1.316 3.387 2.973-0.836 4.799-2.115 4.799-3.387 0-1.275-1.824-2.551-4.799-3.389-0.426 1.351-0.873 2.473-1.387 3.556l0.071-0.167z"></path>
<path d="M8.559 11.593l-0.147-0.52c-1.101-3.877-0.768-6.655 0.916-7.623 1.647-0.953 4.296 0.173 7.071 3.020l0.379 0.389-0.379 0.388c-0.955 0.992-1.84 2.070-2.637 3.213l-0.057 0.086-0.151 0.216-0.261 0.021c-1.563 0.125-2.999 0.366-4.39 0.717l0.181-0.039-0.525 0.131zM10.668 4.221c-0.299 0-0.563 0.065-0.785 0.193-1.104 0.636-1.299 2.851-0.539 5.84 1.188-0.263 2.387-0.451 3.595-0.556 0.748-1.055 1.498-1.978 2.302-2.85l-0.018 0.019c-1.737-1.689-3.377-2.647-4.555-2.647zM21.331 26.867c-1.584 0-3.619-1.195-5.731-3.363l-0.377-0.388 0.377-0.387c0.955-0.994 1.841-2.072 2.638-3.216l0.057-0.086 0.149-0.213 0.259-0.025c1.562-0.123 2.998-0.362 4.39-0.714l-0.179 0.038 0.527-0.133 0.148 0.521c1.096 3.875 0.764 6.656-0.917 7.624-0.374 0.216-0.822 0.343-1.301 0.343-0.014 0-0.028-0-0.042-0l0.002 0zM16.777 23.107c1.736 1.689 3.377 2.648 4.553 2.648 0.3 0 0.564-0.067 0.785-0.193 1.105-0.637 1.301-2.856 0.539-5.845-1.187 0.264-2.387 0.453-3.597 0.559-0.744 1.056-1.493 1.979-2.297 2.851l0.017-0.019z"></path>
<path d="M23.44 11.593l-0.527-0.132c-1.212-0.314-2.648-0.555-4.119-0.673l-0.091-0.006-0.259-0.023-0.149-0.216c-0.852-1.229-1.738-2.306-2.702-3.307l0.008 0.008-0.377-0.388 0.377-0.387c2.773-2.845 5.421-3.972 7.071-3.020 1.683 0.969 2.017 3.747 0.917 7.623l-0.148 0.52zM19.057 9.699c1.272 0.113 2.477 0.304 3.597 0.556 0.761-2.989 0.567-5.204-0.539-5.841-1.099-0.636-3.167 0.337-5.339 2.455 0.821 0.893 1.584 1.837 2.28 2.831zM10.668 26.867c-0.011 0-0.024 0-0.038 0-0.479 0-0.928-0.127-1.315-0.35l0.013 0.007c-1.684-0.968-2.017-3.748-0.917-7.624l0.144-0.521 0.527 0.133c1.285 0.324 2.701 0.552 4.211 0.676l0.259 0.025 0.151 0.213c0.805 1.171 1.707 2.276 2.693 3.303l0.379 0.387-0.379 0.388c-2.111 2.169-4.145 3.363-5.727 3.363zM9.344 19.717c-0.76 2.989-0.565 5.208 0.539 5.845 1.1 0.627 3.161-0.34 5.34-2.456-0.786-0.853-1.536-1.776-2.226-2.744l-0.059-0.086c-1.358-0.122-2.584-0.319-3.78-0.595l0.186 0.036z"></path>
<path d="M16 20.417c-0.916 0-1.856-0.039-2.8-0.117l-0.261-0.023-0.151-0.216c-0.453-0.639-0.949-1.408-1.414-2.198l-0.087-0.16c-0.373-0.627-0.805-1.44-1.204-2.271l-0.090-0.208-0.112-0.236 0.112-0.239c0.399-0.843 0.829-1.669 1.295-2.477 0.463-0.795 0.968-1.589 1.501-2.36l0.151-0.213 0.261-0.024c0.838-0.075 1.814-0.117 2.799-0.117s1.96 0.043 2.924 0.126l-0.125-0.009 0.259 0.025 0.151 0.213c0.981 1.389 1.913 2.975 2.713 4.636l0.087 0.201 0.111 0.239-0.111 0.236c-0.883 1.861-1.816 3.447-2.87 4.941l0.070-0.104-0.151 0.216-0.259 0.023c-0.941 0.076-1.883 0.116-2.797 0.116zM13.555 19.212c1.647 0.124 3.244 0.124 4.889 0 0.835-1.205 1.648-2.588 2.358-4.032l0.085-0.192c-0.79-1.634-1.603-3.017-2.512-4.33l0.069 0.106c-0.732-0.060-1.584-0.094-2.445-0.094s-1.713 0.034-2.556 0.101l0.111-0.007c-0.841 1.207-1.654 2.591-2.36 4.037l-0.083 0.187c0.797 1.637 1.61 3.021 2.515 4.336l-0.073-0.112z"></path>
</symbol>
<symbol id="icon-CSS3" viewBox="0 0 32 32">
<path d="M2 0h28l-2.547 28.751-11.484 3.249-11.42-3.251-2.549-28.749zM24.787 5.884l-17.573-0.004 0.284 3.496 13.5 0.003-0.34 3.621h-8.853l0.32 3.431h8.243l-0.488 4.697-3.88 1.072-3.941-1.080-0.251-2.813h-3.48l0.387 5.14 7.287 2.271 7.164-2.040 1.623-17.792z"></path>
</symbol>
<symbol id="icon-robotcorp" viewBox="0 0 38 32">
<path d="M13.249 7.511h11.421c0.626 0 1.122-0.503 1.128-1.121 0-0.618-0.502-1.122-1.121-1.122h-11.428c-0.618 0-1.122 0.504-1.122 1.122s0.504 1.121 1.122 1.121zM19.813 12.611c0 0.738 0.598 1.337 1.337 1.337s1.337-0.598 1.337-1.337v0c0-0.738-0.598-1.337-1.337-1.337s-1.337 0.598-1.337 1.337v0zM15.439 12.611c0 0.738 0.599 1.337 1.337 1.337s1.337-0.599 1.337-1.337v0c0-0.738-0.598-1.337-1.337-1.337s-1.337 0.598-1.337 1.337v0zM30.891 5.845c0.031 0.242 0.048 0.521 0.048 0.805 0 2.376-1.232 4.465-3.091 5.662l-0.027 0.016c-0.125 0.075-0.207 0.21-0.207 0.364 0 0.108 0.040 0.206 0.107 0.281l-0-0c1.516 1.762 2.51 4.014 2.718 6.489l0.003 0.042c0.002 0.015 0.003 0.031 0.003 0.048 0 0.233-0.189 0.422-0.422 0.422-0.002 0-0.003 0-0.005-0h-22.115c-0.236-0.004-0.425-0.197-0.425-0.433 0-0.013 0.001-0.026 0.002-0.039l-0 0.002c0.213-2.517 1.209-4.769 2.74-6.546l-0.013 0.015c0.066-0.073 0.106-0.171 0.106-0.278 0-0.153-0.082-0.286-0.205-0.359l-0.002-0.001c-1.89-1.212-3.125-3.301-3.125-5.68 0-0.475 0.049-0.938 0.143-1.385l-0.008 0.044c0.543-2.778 2.766-4.91 5.548-5.31l0.036-0.004c0.304-0.048 0.654-0.076 1.010-0.076 1.015 0 1.977 0.224 2.841 0.624l-0.042-0.017c0.72 0.339 1.563 0.537 2.452 0.537s1.733-0.198 2.488-0.552l-0.036 0.015c0.823-0.386 1.786-0.611 2.803-0.611 0.365 0 0.723 0.029 1.072 0.085l-0.038-0.005c2.943 0.436 5.3 2.889 5.643 5.845zM8.035 21.989h21.849c0.268 0 0.47 0.242 0.423 0.511-0.96 5.394-5.67 9.5-11.347 9.5s-10.387-4.098-11.347-9.5c-0.005-0.024-0.007-0.051-0.007-0.080 0-0.238 0.192-0.431 0.43-0.431h0zM3.648 7.471c-2.136 0.873-3.648 2.956-3.648 5.402v0.961c0 2.446 1.519 4.522 3.648 5.402 0.049 0.021 0.105 0.033 0.165 0.033 0.236 0 0.427-0.191 0.427-0.427 0-0.001 0-0.003-0-0.004v0-10.971c-0.002-0.236-0.194-0.428-0.43-0.428-0.058 0-0.113 0.011-0.164 0.032l0.003-0.001zM33.68 7.867c0-0.001 0-0.002 0-0.003 0-0.236 0.191-0.427 0.427-0.427 0.060 0 0.116 0.012 0.168 0.034l-0.003-0.001c2.136 0.88 3.648 2.956 3.648 5.402v0.96c0 2.446-1.512 4.529-3.648 5.402-0.048 0.020-0.103 0.031-0.161 0.031-0.237 0-0.429-0.191-0.43-0.427v-10.971z"></path>
</symbol>
<symbol id="icon-apollo-graphql" viewBox="0 0 33 32">
<path d="M16.064-0.021c-0.062 0.003-0.294 0.022-0.519 0.039-2.804 0.208-5.648 1.245-7.979 2.911-0.771 0.55-1.38 1.066-2.059 1.744-3.901 3.904-5.508 9.49-4.288 14.917 0.499 2.227 1.565 4.468 2.978 6.268 2.218 2.83 5.258 4.824 8.669 5.688 1.388 0.353 2.541 0.496 3.996 0.496 1.436 0 2.493-0.129 3.862-0.463 1.966-0.482 3.694-1.276 5.421-2.485 1.655-1.161 3.194-2.788 4.299-4.54 1.425-2.266 2.235-4.768 2.434-7.513 0.042-0.578 0.017-2.008-0.045-2.597-0.123-1.169-0.438-2.712-0.62-3.034-0.073-0.126-0.278-0.289-0.429-0.342-0.053-0.017-0.171-0.031-0.266-0.031-0.421 0-0.774 0.351-0.774 0.763 0 0.098 0.045 0.334 0.109 0.589 0.555 2.159 0.6 4.532 0.126 6.697-0.606 2.774-1.958 5.219-3.996 7.224-0.951 0.934-1.868 1.624-3.054 2.302-2.768 1.585-6.209 2.185-9.437 1.646-2.451-0.407-4.58-1.349-6.602-2.922-0.951-0.74-2.109-1.96-2.827-2.981-1.24-1.761-2.019-3.618-2.423-5.774-0.205-1.099-0.275-2.558-0.179-3.744 0.146-1.8 0.597-3.472 1.363-5.056 0.353-0.738 0.572-1.122 0.996-1.758 0.864-1.307 2.008-2.53 3.273-3.5 1.484-1.141 3.245-2.008 5.026-2.474 0.962-0.252 1.73-0.379 2.706-0.449 3.531-0.252 6.964 0.763 9.76 2.891 0.208 0.157 0.426 0.328 0.485 0.381l0.107 0.093-0.042 0.118c-0.216 0.606-0.056 1.36 0.398 1.887 0.233 0.269 0.653 0.522 1.010 0.606 0.244 0.059 0.667 0.059 0.914 0 0.625-0.149 1.209-0.684 1.394-1.279 0.208-0.665 0.087-1.321-0.339-1.854-0.471-0.589-1.282-0.853-2.030-0.656l-0.163 0.042-0.23-0.191c-0.934-0.782-2.064-1.506-3.253-2.081-1.929-0.934-3.867-1.436-6.075-1.571-0.423-0.025-1.425-0.031-1.697-0.008z"></path>
<path d="M14.404 9.206c-0.297 0.768-0.942 2.451-1.439 3.738s-1.514 3.932-2.263 5.875c-0.746 1.944-1.366 3.542-1.371 3.553-0.008 0.014 0.78 0.022 1.747 0.022h1.764l0.104-0.289c0.059-0.157 0.266-0.712 0.46-1.234l0.353-0.945h2.647c2.109 0 2.647-0.008 2.639-0.036-0.028-0.076-0.46-1.31-0.69-1.969l-0.247-0.701-3.503-0.028 1.139-3.138c0.684-1.885 1.147-3.119 1.155-3.091 0.011 0.025 0.466 1.318 1.012 2.872s1.45 4.111 2.005 5.685l1.007 2.861 1.756 0.008c0.965 0.003 1.756 0 1.756-0.006s-0.227-0.603-0.508-1.324c-0.28-0.724-0.881-2.28-1.335-3.461s-0.965-2.504-1.136-2.945c-0.168-0.44-0.463-1.203-0.653-1.697s-0.687-1.786-1.108-2.875-0.788-2.044-0.819-2.126l-0.053-0.146h-3.884z"></path>
</symbol>
<symbol id="icon-prisma" viewBox="0 0 26 32">
<path d="M25.92 24.45l-11.016-23.393c-0.278-0.574-0.841-0.971-1.501-1.006l-0.004-0c-0.035-0.003-0.076-0.004-0.117-0.004-0.629 0-1.18 0.332-1.488 0.831l-0.004 0.008-11.948 19.351c-0.171 0.271-0.273 0.602-0.273 0.956 0 0.367 0.109 0.709 0.297 0.994l-0.004-0.007 5.841 9.046c0.34 0.517 0.918 0.854 1.574 0.854 0.191 0 0.375-0.028 0.549-0.081l-0.013 0.004 16.951-5.014c0.522-0.156 0.939-0.521 1.162-0.996l0.005-0.011c0.103-0.221 0.164-0.48 0.164-0.753 0-0.282-0.064-0.549-0.179-0.787l0.005 0.011zM23.454 25.453l-14.384 4.253c-0.439 0.131-0.86-0.25-0.769-0.693l5.139-24.607c0.096-0.46 0.732-0.533 0.933-0.107l9.513 20.202c0.041 0.085 0.065 0.185 0.065 0.291 0 0.312-0.208 0.575-0.493 0.659l-0.005 0.001z"></path>
</symbol>
<symbol id="icon-postgresql" viewBox="0 0 32 32">
<path fill="#336791" style="fill: var(--color1, #336791)" d="M22.837 0c-1.312 0.010-2.575 0.206-3.769 0.562l0.096-0.024-0.084 0.027c-0.677-0.126-1.464-0.205-2.267-0.22l-0.013-0c-1.571-0.027-2.92 0.355-4.008 0.989-1.072-0.372-3.296-1.013-5.64-0.885-1.632 0.089-3.413 0.585-4.733 1.979-1.316 1.393-2.012 3.549-1.865 6.483 0.040 0.809 0.271 2.129 0.653 3.839s0.92 3.711 1.591 5.536c0.671 1.827 1.405 3.467 2.553 4.581 0.573 0.559 1.363 1.028 2.293 0.989 0.653-0.027 1.244-0.313 1.753-0.736 0.248 0.327 0.513 0.469 0.755 0.601 0.304 0.167 0.6 0.28 0.907 0.355 0.551 0.137 1.493 0.321 2.597 0.133 0.376-0.063 0.772-0.185 1.167-0.36 0.015 0.44 0.032 0.871 0.049 1.307 0.055 1.381 0.089 2.657 0.504 3.776 0.067 0.183 0.249 1.124 0.969 1.955 0.72 0.832 2.131 1.351 3.737 1.007 1.133-0.243 2.575-0.68 3.532-2.043 0.947-1.347 1.373-3.279 1.457-6.412 0.021-0.169 0.047-0.313 0.073-0.448l0.225 0.020h0.027c1.209 0.055 2.521-0.117 3.617-0.627 0.971-0.449 1.705-0.904 2.24-1.711 0.133-0.2 0.28-0.441 0.32-0.857s-0.199-1.067-0.595-1.367c-0.793-0.603-1.292-0.373-1.827-0.263-0.476 0.11-1.027 0.18-1.592 0.194l-0.010 0c1.541-2.596 2.647-5.353 3.277-7.793 0.373-1.44 0.583-2.768 0.6-3.929s-0.077-2.189-0.773-3.079c-2.175-2.779-5.232-3.547-7.597-3.573-0.073-0.001-0.147-0.003-0.22-0.005zM22.775 0.853c2.237-0.021 5.096 0.607 7.148 3.229 0.461 0.589 0.599 1.451 0.583 2.512-0.017 1.060-0.213 2.329-0.572 3.72-0.696 2.693-2.011 5.833-3.863 8.651 0.061 0.044 0.13 0.082 0.204 0.112l0.007 0.002c0.387 0.16 1.268 0.297 3.027-0.064 0.443-0.093 0.767-0.156 1.103 0.1 0.15 0.128 0.245 0.317 0.245 0.529 0 0.013-0 0.026-0.001 0.040l0-0.002c-0.019 0.17-0.081 0.323-0.175 0.451l0.002-0.003c-0.34 0.511-1.011 0.995-1.871 1.393-0.761 0.355-1.853 0.54-2.821 0.551-0.485 0.005-0.933-0.032-1.313-0.151l-0.024-0.009c-0.147 1.413-0.484 4.204-0.704 5.477-0.176 1.027-0.484 1.843-1.072 2.453-0.587 0.611-1.417 0.979-2.535 1.219-1.384 0.297-2.393-0.023-3.044-0.571-0.649-0.547-0.947-1.272-1.125-1.716-0.123-0.307-0.187-0.704-0.248-1.235s-0.107-1.18-0.137-1.912c-0.029-0.745-0.045-1.619-0.045-2.497 0-0.305 0.002-0.609 0.006-0.913l-0 0.046c-0.558 0.512-1.263 0.872-2.045 1.010l-0.024 0.004c-0.919 0.156-1.739 0.003-2.228-0.12-0.264-0.067-0.494-0.159-0.709-0.276l0.016 0.008c-0.227-0.121-0.443-0.259-0.587-0.529-0.057-0.103-0.091-0.227-0.091-0.358 0-0.053 0.006-0.105 0.016-0.155l-0.001 0.005c0.047-0.18 0.15-0.332 0.289-0.44l0.002-0.001c0.264-0.215 0.613-0.335 1.14-0.444 0.959-0.197 1.293-0.332 1.497-0.493 0.173-0.139 0.369-0.419 0.716-0.829-0.001-0.013-0.003-0.032-0.004-0.051l-0-0.004c-0.653-0.019-1.261-0.193-1.794-0.488l0.020 0.010c-0.2 0.211-1.221 1.291-2.467 2.789-0.524 0.627-1.103 0.987-1.713 1.012-0.611 0.027-1.163-0.281-1.632-0.736-0.937-0.911-1.685-2.477-2.337-4.248-0.651-1.771-1.18-3.743-1.556-5.423-0.377-1.68-0.6-3.035-0.632-3.688-0.14-2.776 0.509-4.647 1.623-5.827 1.115-1.18 2.643-1.627 4.132-1.712 2.673-0.153 5.212 0.779 5.725 0.979 0.989-0.672 2.264-1.091 3.856-1.064 0.801 0.012 1.572 0.117 2.31 0.305l-0.068-0.015 0.027-0.012c0.257-0.095 0.587-0.194 0.923-0.273l0.062-0.012c0.825-0.202 1.776-0.324 2.754-0.337l0.009-0zM22.977 1.747h-0.195c-0.811 0.012-1.594 0.104-2.349 0.27l0.077-0.014c1.661 0.736 2.916 1.869 3.8 3 0.585 0.739 1.091 1.583 1.481 2.487l0.028 0.073c0.147 0.352 0.245 0.649 0.301 0.88 0.028 0.116 0.047 0.213 0.053 0.315 0.003 0.051 0.005 0.103-0.016 0.192 0 0.004-0.007 0.013-0.008 0.017 0.040 1.168-0.249 1.96-0.284 3.075-0.027 0.808 0.18 1.757 0.231 2.793 0.048 0.973-0.069 2.043-0.701 3.092 0.053 0.064 0.101 0.128 0.152 0.192 1.672-2.633 2.877-5.547 3.52-8.031 0.344-1.337 0.527-2.549 0.543-3.509 0.013-0.96-0.165-1.656-0.393-1.947-1.789-2.288-4.211-2.871-6.24-2.885zM16.591 2.088c-1.576 0.004-2.707 0.48-3.564 1.193-0.884 0.737-1.477 1.747-1.867 2.78-0.463 1.227-0.621 2.413-0.684 3.219l0.017-0.011c0.476-0.267 1.101-0.533 1.771-0.688 0.669-0.153 1.391-0.201 2.044 0.052s1.193 0.849 1.389 1.753c0.939 4.343-0.292 5.957-0.745 7.176-0.144 0.351-0.295 0.801-0.42 1.261l-0.021 0.090c0.057-0.013 0.115-0.029 0.172-0.035 0.32-0.027 0.571 0.080 0.72 0.144 0.456 0.189 0.769 0.587 0.939 1.040 0.044 0.119 0.076 0.247 0.095 0.379 0.017 0.046 0.027 0.098 0.027 0.153 0 0.006-0 0.011-0 0.017l0-0.001c-0.022 0.666-0.034 1.45-0.034 2.236 0 0.966 0.019 1.928 0.056 2.885l-0.004-0.138c0.031 0.717 0.076 1.349 0.133 1.848 0.057 0.497 0.139 0.876 0.191 1.004 0.171 0.427 0.42 0.985 0.871 1.365 0.451 0.379 1.097 0.632 2.279 0.379 1.024-0.22 1.656-0.525 2.079-0.964 0.421-0.439 0.673-1.049 0.835-1.984 0.241-1.4 0.727-5.46 0.785-6.224-0.027-0.576 0.059-1.019 0.243-1.356 0.189-0.347 0.483-0.559 0.736-0.673 0.127-0.057 0.245-0.096 0.343-0.124-0.119-0.17-0.225-0.311-0.336-0.448l0.012 0.015c-0.35-0.422-0.648-0.905-0.873-1.427l-0.015-0.039c-0.136-0.279-0.25-0.49-0.371-0.697l0.028 0.052c-0.177-0.32-0.401-0.72-0.636-1.169-0.469-0.9-0.98-1.991-1.245-3.053-0.264-1.061-0.303-2.16 0.375-2.935 0.6-0.688 1.653-0.973 3.235-0.813-0.047-0.14-0.075-0.256-0.153-0.443-0.386-0.898-0.851-1.672-1.405-2.374l0.017 0.022c-1.34-1.713-3.509-3.412-6.861-3.467zM7.735 2.157c-0.169 0-0.339 0.005-0.507 0.015-1.347 0.077-2.62 0.468-3.531 1.433-0.912 0.965-1.512 2.548-1.381 5.168 0.025 0.496 0.241 1.885 0.612 3.536 0.369 1.651 0.893 3.593 1.523 5.309 0.631 1.716 1.395 3.209 2.12 3.916 0.365 0.353 0.683 0.496 0.971 0.484 0.289-0.013 0.637-0.18 1.063-0.691 0.836-1.006 1.625-1.895 2.44-2.759l-0.026 0.028c-0.986-0.86-1.606-2.118-1.606-3.521 0-0.24 0.018-0.475 0.053-0.705l-0.003 0.026c0.137-0.985 0.156-1.907 0.14-2.635-0.016-0.709-0.067-1.181-0.067-1.476-0-0.004-0-0.008-0-0.013s0-0.009 0-0.013v0.001-0.007l-0.001-0.008v-0.001c0-0.002 0-0.004 0-0.007 0-1.613 0.289-3.158 0.819-4.586l-0.030 0.091c0.373-0.992 0.929-2 1.763-2.816-0.819-0.269-2.272-0.68-3.845-0.757-0.15-0.008-0.327-0.013-0.505-0.013h-0.001zM24.265 9.2c-0.905 0.012-1.413 0.245-1.68 0.551-0.377 0.433-0.413 1.193-0.179 2.129 0.233 0.937 0.716 1.985 1.169 2.856 0.227 0.436 0.447 0.828 0.624 1.147 0.179 0.32 0.309 0.547 0.389 0.74 0.073 0.179 0.155 0.336 0.237 0.483 0.351-0.74 0.413-1.467 0.377-2.224-0.047-0.937-0.264-1.896-0.232-2.867 0.036-1.135 0.26-1.873 0.28-2.751-0.296-0.040-0.639-0.064-0.986-0.064h-0zM13.287 9.353c-0.293 0.003-0.576 0.039-0.847 0.104l0.026-0.005c-0.583 0.144-1.095 0.349-1.569 0.615l0.031-0.016c-0.177 0.096-0.33 0.197-0.472 0.309l0.007-0.005-0.029 0.027c0.008 0.195 0.047 0.667 0.063 1.361 0.016 0.76-0.003 1.729-0.149 2.779-0.319 2.28 1.336 4.168 3.28 4.171 0.113-0.468 0.3-0.943 0.487-1.443 0.541-1.459 1.607-2.523 0.709-6.675-0.147-0.68-0.437-0.955-0.837-1.109-0.195-0.071-0.42-0.112-0.655-0.112-0.015 0-0.030 0-0.046 0.001l0.002-0zM23.843 9.625h0.067c0.088 0.003 0.169 0.012 0.24 0.029 0.072 0.016 0.133 0.040 0.184 0.073s0.088 0.084 0.1 0.145l0 0.001-0.001 0.011c0 0.004 0 0.009 0 0.013 0 0.062-0.017 0.119-0.048 0.168l0.001-0.001c-0.041 0.076-0.090 0.142-0.147 0.2l0-0c-0.132 0.145-0.309 0.246-0.509 0.282l-0.005 0.001c-0.028 0.004-0.061 0.006-0.094 0.006-0.169 0-0.326-0.054-0.455-0.145l0.002 0.002c-0.066-0.045-0.123-0.097-0.172-0.156l-0.001-0.001c-0.042-0.046-0.071-0.103-0.084-0.167l-0-0.002c-0.001-0.006-0.001-0.013-0.001-0.020 0-0.058 0.022-0.11 0.057-0.15l-0 0c0.043-0.049 0.095-0.089 0.153-0.119l0.003-0.001c0.128-0.072 0.301-0.125 0.497-0.155 0.073-0.011 0.145-0.016 0.213-0.013zM13.416 9.849c0.071 0 0.145 0.007 0.221 0.017 0.204 0.028 0.385 0.083 0.524 0.163 0.069 0.037 0.128 0.084 0.177 0.141l0.001 0.001c0.046 0.052 0.074 0.121 0.074 0.196 0 0.011-0.001 0.022-0.002 0.032l0-0.001c-0.014 0.080-0.049 0.15-0.1 0.206l0-0c-0.055 0.067-0.117 0.124-0.188 0.171l-0.003 0.002c-0.137 0.098-0.308 0.157-0.493 0.157-0.037 0-0.073-0.002-0.108-0.007l0.004 0c-0.223-0.038-0.417-0.147-0.559-0.303l-0.001-0.001c-0.061-0.063-0.113-0.135-0.155-0.214l-0.002-0.005c-0.036-0.056-0.057-0.124-0.057-0.198 0-0.014 0.001-0.027 0.002-0.040l-0 0.002c0.020-0.144 0.139-0.219 0.255-0.26 0.109-0.038 0.235-0.060 0.366-0.060 0.016 0 0.031 0 0.047 0.001l-0.002-0zM25.496 19.64l-0.004 0.001c-0.196 0.071-0.357 0.1-0.493 0.16-0.139 0.055-0.25 0.155-0.317 0.282l-0.002 0.003c-0.084 0.153-0.156 0.425-0.135 0.888 0.057 0.039 0.122 0.071 0.193 0.092l0.005 0.001c0.228 0.069 0.611 0.115 1.037 0.108 0.851-0.009 1.897-0.208 2.453-0.467 0.481-0.226 0.895-0.5 1.263-0.825l-0.006 0.005h-0.001c-1.857 0.384-2.907 0.281-3.551 0.016-0.169-0.071-0.315-0.16-0.446-0.268l0.003 0.002zM14.788 19.765h-0.028c-0.071 0.007-0.173 0.031-0.372 0.251-0.464 0.52-0.627 0.847-1.009 1.152-0.383 0.304-0.88 0.467-1.873 0.671-0.315 0.064-0.495 0.135-0.615 0.192 0.039 0.032 0.035 0.040 0.093 0.071 0.145 0.080 0.332 0.151 0.483 0.189 0.427 0.107 1.128 0.231 1.86 0.107 0.732-0.125 1.493-0.476 2.143-1.387 0.112-0.157 0.124-0.389 0.032-0.639-0.093-0.249-0.297-0.464-0.441-0.524-0.079-0.040-0.171-0.069-0.268-0.082l-0.005-0z"></path>
</symbol>
<symbol id="icon-next-dot-js" viewBox="0 0 32 32">
<path d="M23.751 30.003c-0.119 0.063-0.112 0.088 0.007 0.028 0.036-0.016 0.067-0.037 0.093-0.063l-0 0c0-0.021-0.003-0.019-0.1 0.035zM23.988 29.877c-0.056 0.044-0.056 0.047 0.012 0.012 0.037-0.019 0.069-0.040 0.069-0.047 0-0.025-0.016-0.019-0.081 0.035zM24.144 29.783c-0.056 0.044-0.056 0.047 0.012 0.012 0.037-0.019 0.069-0.040 0.069-0.047 0-0.025-0.016-0.019-0.081 0.035zM24.3 29.689c-0.056 0.044-0.056 0.047 0.012 0.012 0.037-0.019 0.069-0.040 0.069-0.047 0-0.025-0.016-0.019-0.081 0.035zM24.516 29.549c-0.109 0.069-0.144 0.116-0.047 0.063 0.069-0.040 0.181-0.125 0.163-0.128-0.044 0.019-0.082 0.041-0.118 0.067l0.002-0.001zM14.952 0.008c-0.069 0.007-0.288 0.028-0.485 0.044-4.544 0.409-8.801 2.861-11.497 6.631-1.43 1.965-2.431 4.334-2.813 6.904l-0.011 0.087c-0.128 0.879-0.144 1.139-0.144 2.331s0.016 1.451 0.144 2.331c0.869 6.008 5.145 11.056 10.944 12.927 1.039 0.335 2.133 0.563 3.377 0.7 0.485 0.053 2.58 0.053 3.065 0 2.148-0.237 3.969-0.769 5.764-1.685 0.275-0.141 0.328-0.179 0.291-0.209-0.312-0.379-1.167-1.516-2.015-2.659l-0.591-0.834-2.559-3.456-3.205-4.744c-2.045-3.101-3.108-4.645-4.18-6.183l0.952 1.441c-0.012-0.003-0.025 2.105-0.031 4.679-0.009 4.507-0.012 4.688-0.069 4.795-0.056 0.125-0.152 0.224-0.271 0.283l-0.003 0.001c-0.1 0.051-0.188 0.060-0.66 0.060h-0.541l-0.144-0.091c-0.089-0.057-0.16-0.134-0.208-0.225l-0.002-0.003-0.065-0.141 0.007-6.271 0.009-6.273 0.097-0.121c0.065-0.076 0.142-0.14 0.228-0.188l0.004-0.002c0.128-0.063 0.179-0.069 0.72-0.069 0.639 0 0.744 0.025 0.911 0.207-0.11-0.286 1.162 1.609 2.423 3.511l1.437 2.303c2.077 3.149 4.916 7.449 6.312 9.561l2.533 3.837 0.128-0.084c1.249-0.838 2.329-1.789 3.27-2.865l0.016-0.019c1.947-2.219 3.292-5.011 3.755-8.091l0.011-0.088c0.128-0.879 0.144-1.139 0.144-2.331s-0.016-1.451-0.144-2.331c-0.869-6.008-5.145-11.056-10.944-12.927-0.962-0.319-2.092-0.565-3.257-0.691l-0.074-0.006c-0.3-0.031-2.368-0.065-2.629-0.044zM21.501 9.685c0.15 0.076 0.263 0.207 0.315 0.365l0.001 0.004c0.025 0.081 0.031 1.82 0.025 5.739l-0.009 5.624-0.992-1.52-0.995-1.52v-4.088c0-2.643 0.012-4.128 0.031-4.2 0.048-0.171 0.159-0.31 0.306-0.393l0.003-0.002c0.128-0.065 0.175-0.072 0.667-0.072 0.463 0 0.544 0.007 0.648 0.063z"></path>
</symbol>
<symbol id="icon-graphql" viewBox="0 0 32 32">
<path fill="#e10098" style="fill: var(--color2, #e10098)" d="M18.735 3.668l6.58 3.8c1.088-1.145 2.897-1.191 4.043-0.103 0.197 0.187 0.365 0.401 0.503 0.636 0.785 1.371 0.309 3.119-1.061 3.904-0.232 0.133-0.481 0.233-0.744 0.297v7.599c1.528 0.364 2.472 1.897 2.107 3.425-0.064 0.272-0.169 0.533-0.309 0.775-0.789 1.364-2.535 1.832-3.903 1.043-0.261-0.151-0.5-0.345-0.701-0.572l-6.54 3.776c0.496 1.499-0.317 3.113-1.815 3.608-0.289 0.095-0.589 0.144-0.893 0.144-1.575 0.001-2.852-1.273-2.853-2.848 0-0.273 0.039-0.547 0.117-0.812l-6.581-3.796c-1.088 1.139-2.895 1.183-4.035 0.093-1.139-1.088-1.181-2.895-0.093-4.035 0.377-0.396 0.861-0.675 1.392-0.804l0.001-7.599c-1.533-0.368-2.477-1.911-2.108-3.445 0.063-0.264 0.164-0.519 0.299-0.755 0.789-1.365 2.536-1.832 3.903-1.043 0.236 0.135 0.452 0.304 0.64 0.503l6.584-3.8c-0.448-1.511 0.415-3.096 1.921-3.543 0.263-0.079 0.539-0.117 0.813-0.117 1.575-0.001 2.852 1.272 2.853 2.845 0.001 0.279-0.040 0.557-0.119 0.823zM18.048 4.837c-0.025 0.028-0.049 0.052-0.077 0.077l8.615 14.92c0.035-0.012 0.075-0.021 0.109-0.031v-7.609c-1.527-0.377-2.456-1.923-2.077-3.451 0.008-0.032 0.016-0.065 0.025-0.096zM14.028 4.916l-0.080-0.080-6.595 3.803c0.436 1.513-0.436 3.091-1.948 3.527-0.035 0.011-0.068 0.019-0.101 0.028v7.611l0.112 0.031 8.615-14.92zM16.796 5.592c-0.52 0.149-1.071 0.149-1.589 0l-8.613 14.919c0.392 0.377 0.669 0.86 0.8 1.388h17.215c0.129-0.531 0.409-1.015 0.804-1.392zM18.111 27.228l6.551-3.784c-0.020-0.063-0.036-0.125-0.051-0.189h-17.221l-0.028 0.111 6.585 3.803c0.517-0.539 1.245-0.871 2.053-0.871 0.836 0 1.587 0.359 2.111 0.931z"></path>
</symbol>
<symbol id="icon-react" viewBox="0 0 32 32">
<path fill="#61dafb" style="fill: var(--color3, #61dafb)" d="M16 13.148c-1.575 0-2.852 1.277-2.852 2.852s1.277 2.852 2.852 2.852v0c1.575 0 2.852-1.277 2.852-2.852s-1.277-2.852-2.852-2.852v0zM8.011 21.673l-0.629-0.16c-4.691-1.185-7.381-3.197-7.381-5.519s2.691-4.333 7.381-5.519l0.629-0.159 0.177 0.624c0.545 1.86 1.163 3.443 1.899 4.957l-0.082-0.186 0.135 0.284-0.135 0.284c-0.656 1.329-1.275 2.912-1.761 4.551l-0.056 0.22zM7.089 11.933c-3.565 1.001-5.753 2.533-5.753 4.061 0 1.527 2.188 3.059 5.753 4.061 0.512-1.62 1.046-2.965 1.662-4.263l-0.086 0.202c-0.531-1.098-1.066-2.443-1.511-3.828l-0.065-0.234zM23.989 21.673l-0.177-0.625c-0.544-1.859-1.162-3.441-1.9-4.954l0.081 0.184-0.135-0.284 0.135-0.284c0.656-1.329 1.275-2.911 1.762-4.55l0.056-0.221 0.177-0.624 0.631 0.159c4.689 1.185 7.38 3.197 7.38 5.52s-2.691 4.333-7.38 5.519zM23.335 15.995c0.64 1.385 1.169 2.747 1.576 4.061 3.567-1.003 5.753-2.535 5.753-4.061 0-1.528-2.188-3.059-5.753-4.061-0.511 1.619-1.045 2.963-1.662 4.262l0.086-0.2zM7.080 11.927l-0.177-0.623c-1.319-4.648-0.919-7.979 1.097-9.141 1.977-1.141 5.152 0.207 8.479 3.621l0.453 0.465-0.453 0.465c-1.146 1.19-2.207 2.482-3.162 3.853l-0.068 0.103-0.18 0.257-0.313 0.027c-1.875 0.151-3.596 0.439-5.264 0.86l0.218-0.047zM9.608 3.087c-0.357 0-0.673 0.077-0.94 0.231-1.325 0.764-1.56 3.42-0.647 7.004 1.21-0.285 2.681-0.521 4.18-0.658l0.131-0.010c0.894-1.264 1.792-2.37 2.756-3.414l-0.020 0.022c-2.080-2.025-4.049-3.175-5.46-3.175zM22.393 30.236c-0.001 0-0.001 0 0 0-1.9 0-4.34-1.431-6.872-4.031l-0.453-0.465 0.453-0.465c1.146-1.19 2.206-2.482 3.16-3.854l0.068-0.103 0.18-0.257 0.312-0.027c1.875-0.15 3.597-0.438 5.267-0.858l-0.218 0.046 0.629-0.159 0.179 0.624c1.316 4.645 0.917 7.977-1.099 9.139-0.449 0.259-0.988 0.411-1.562 0.411-0.016 0-0.031-0-0.047-0l0.002 0zM16.932 25.728c2.080 2.025 4.049 3.175 5.46 3.175h0.001c0.356 0 0.673-0.077 0.939-0.231 1.325-0.764 1.561-3.421 0.647-7.005-1.212 0.286-2.682 0.522-4.182 0.658l-0.13 0.010c-0.893 1.265-1.791 2.371-2.755 3.416l0.020-0.022zM24.92 11.927l-0.629-0.159c-1.453-0.376-3.175-0.664-4.939-0.806l-0.111-0.007-0.312-0.027-0.18-0.257c-1.021-1.474-2.082-2.766-3.237-3.966l0.009 0.010-0.453-0.465 0.453-0.465c3.325-3.413 6.499-4.761 8.479-3.621 2.016 1.163 2.416 4.493 1.099 9.14zM19.667 9.653c1.523 0.139 2.969 0.364 4.312 0.668 0.915-3.584 0.679-6.24-0.647-7.004-1.317-0.761-3.793 0.405-6.4 2.944 0.943 1.022 1.841 2.128 2.666 3.289l0.069 0.103zM9.608 30.236c-0.014 0-0.030 0-0.046 0-0.574 0-1.113-0.152-1.577-0.419l0.015 0.008c-2.016-1.161-2.416-4.492-1.097-9.139l0.176-0.624 0.629 0.159c1.54 0.388 3.239 0.661 5.047 0.812l0.313 0.027 0.179 0.257c1.022 1.475 2.083 2.767 3.239 3.967l-0.010-0.010 0.453 0.465-0.453 0.465c-2.531 2.6-4.971 4.031-6.868 4.031zM8.021 21.667c-0.915 3.584-0.679 6.241 0.647 7.005 1.316 0.751 3.791-0.407 6.4-2.944-0.943-1.022-1.841-2.129-2.667-3.29l-0.069-0.103c-1.629-0.146-3.099-0.382-4.534-0.711l0.224 0.043zM16 22.504c-1.097 0-2.225-0.048-3.355-0.141l-0.313-0.027-0.18-0.257c-0.544-0.768-1.139-1.691-1.697-2.639l-0.103-0.19c-0.452-0.758-0.971-1.732-1.45-2.728l-0.105-0.243-0.133-0.284 0.133-0.284c0.584-1.239 1.102-2.212 1.658-3.161l-0.103 0.191c0.552-0.955 1.159-1.907 1.8-2.829l0.18-0.257 0.313-0.027c1.005-0.090 2.174-0.142 3.355-0.142s2.35 0.052 3.505 0.153l-0.15-0.011 0.312 0.027 0.179 0.257c1.177 1.666 2.294 3.567 3.252 5.56l0.104 0.24 0.135 0.284-0.135 0.284c-1.058 2.232-2.176 4.133-3.439 5.925l0.083-0.125-0.179 0.257-0.312 0.027c-1.129 0.093-2.259 0.141-3.356 0.141zM13.071 21.059c1.973 0.148 3.885 0.148 5.86 0 1.004-1.445 1.978-3.104 2.827-4.836l0.101-0.228c-0.947-1.958-1.922-3.617-3.012-5.19l0.083 0.126c-0.877-0.071-1.898-0.111-2.929-0.111s-2.052 0.040-3.063 0.119l0.134-0.008c-1.008 1.447-1.983 3.106-2.83 4.84l-0.099 0.224c0.951 1.96 1.926 3.619 3.014 5.193l-0.085-0.13z"></path>
</symbol>
<symbol id="icon-node-js" viewBox="0 0 32 32">
<path fill="#393" style="fill: var(--color4, #393)" d="M15.997 32c-0.428 0-0.855-0.112-1.229-0.329l-3.915-2.316c-0.584-0.327-0.299-0.443-0.107-0.511 0.78-0.271 0.937-0.333 1.771-0.805 0.087-0.049 0.201-0.031 0.291 0.023l3.008 1.785c0.109 0.060 0.263 0.060 0.363 0l11.727-6.768c0.109-0.063 0.179-0.188 0.179-0.317v-13.533c0-0.132-0.071-0.256-0.183-0.323l-11.721-6.763c-0.108-0.063-0.252-0.063-0.361 0l-11.719 6.764c-0.113 0.065-0.185 0.193-0.185 0.321v13.533c0 0.129 0.072 0.252 0.185 0.313l3.212 1.856c1.743 0.872 2.811-0.155 2.811-1.187v-13.361c0-0.189 0.152-0.337 0.341-0.337h1.487c0.185 0 0.34 0.149 0.34 0.337v13.361c0 2.327-1.267 3.66-3.472 3.66-0.677 0-1.212 0-2.701-0.735l-3.077-1.769c-0.76-0.439-1.229-1.26-1.229-2.139v-13.533c0-0.879 0.471-1.7 1.229-2.137l11.727-6.776c0.743-0.42 1.728-0.42 2.464 0l11.725 6.776c0.76 0.439 1.232 1.259 1.232 2.137v13.533c0 0.879-0.472 1.697-1.232 2.139l-11.725 6.771c-0.373 0.217-0.799 0.329-1.233 0.329zM25.465 18.657c0-2.533-1.712-3.208-5.316-3.684-3.641-0.481-4.012-0.731-4.012-1.583 0-0.704 0.313-1.644 3.011-1.644 2.409 0 3.297 0.519 3.663 2.143 0.032 0.153 0.172 0.265 0.329 0.265h1.521c0.095 0 0.184-0.041 0.248-0.108 0.064-0.072 0.099-0.164 0.089-0.261-0.236-2.797-2.095-4.101-5.851-4.101-3.344 0-5.339 1.411-5.339 3.777 0 2.567 1.984 3.276 5.193 3.593 3.84 0.376 4.137 0.937 4.137 1.692 0 1.311-1.052 1.869-3.523 1.869-3.103 0-3.785-0.779-4.015-2.323-0.027-0.165-0.168-0.287-0.337-0.287h-1.516c-0.188 0-0.339 0.149-0.339 0.337 0 1.976 1.075 4.331 6.207 4.331 3.717 0.001 5.848-1.461 5.848-4.017z"></path>
</symbol>
<symbol id="icon-bookmark" viewBox="0 0 20 20">
<path d="M14 2v17l-4-4-4 4v-17c0-0.553 0.585-1.020 1-1h6c0.689-0.020 1 0.447 1 1z"></path>
</symbol>
<symbol id="icon-chevron-small-down" viewBox="0 0 20 20">
<path d="M13.418 7.859c0.271-0.268 0.709-0.268 0.978 0s0.272 0.701 0 0.969l-3.908 3.83c-0.27 0.268-0.707 0.268-0.979 0l-3.908-3.83c-0.27-0.267-0.27-0.701 0-0.969s0.709-0.268 0.978 0l3.421 3.141 3.418-3.141z"></path>
</symbol>
<symbol id="icon-chevron-thin-left" viewBox="0 0 20 20">
<path d="M13.891 17.418c0.268 0.272 0.268 0.709 0 0.979s-0.701 0.271-0.969 0l-7.83-7.908c-0.268-0.27-0.268-0.707 0-0.979l7.83-7.908c0.268-0.27 0.701-0.27 0.969 0s0.268 0.709 0 0.979l-7.141 7.419 7.141 7.418z"></path>
</symbol>
<symbol id="icon-chevron-thin-right" viewBox="0 0 20 20">
<path d="M13.25 10l-7.141-7.42c-0.268-0.27-0.268-0.707 0-0.979 0.268-0.27 0.701-0.27 0.969 0l7.83 7.908c0.268 0.271 0.268 0.709 0 0.979l-7.83 7.908c-0.268 0.271-0.701 0.27-0.969 0s-0.268-0.707 0-0.979l7.141-7.417z"></path>
</symbol>
<symbol id="icon-cross" viewBox="0 0 20 20">
<path d="M14.348 14.849c-0.469 0.469-1.229 0.469-1.697 0l-2.651-3.030-2.651 3.029c-0.469 0.469-1.229 0.469-1.697 0-0.469-0.469-0.469-1.229 0-1.697l2.758-3.15-2.759-3.152c-0.469-0.469-0.469-1.228 0-1.697s1.228-0.469 1.697 0l2.652 3.031 2.651-3.031c0.469-0.469 1.228-0.469 1.697 0s0.469 1.229 0 1.697l-2.758 3.152 2.758 3.15c0.469 0.469 0.469 1.229 0 1.698z"></path>
</symbol>
<symbol id="icon-email" viewBox="0 0 20 20">
<path d="M14.608 12.172c0 0.84 0.239 1.175 0.864 1.175 1.393 0 2.28-1.775 2.28-4.727 0-4.512-3.288-6.672-7.393-6.672-4.223 0-8.064 2.832-8.064 8.184 0 5.112 3.36 7.896 8.52 7.896 1.752 0 2.928-0.192 4.727-0.792l0.386 1.607c-1.776 0.577-3.674 0.744-5.137 0.744-6.768 0-10.393-3.72-10.393-9.456 0-5.784 4.201-9.72 9.985-9.72 6.024 0 9.215 3.6 9.215 8.016 0 3.744-1.175 6.6-4.871 6.6-1.681 0-2.784-0.672-2.928-2.161-0.432 1.656-1.584 2.161-3.145 2.161-2.088 0-3.84-1.609-3.84-4.848 0-3.264 1.537-5.28 4.297-5.28 1.464 0 2.376 0.576 2.782 1.488l0.697-1.272h2.016v7.057h0.002zM11.657 9.004c0-1.319-0.985-1.872-1.801-1.872-0.888 0-1.871 0.719-1.871 2.832 0 1.68 0.744 2.616 1.871 2.616 0.792 0 1.801-0.504 1.801-1.896v-1.68z"></path>
</symbol>
<symbol id="icon-graduation-cap" viewBox="0 0 20 20">
<path d="M3.302 12.238c0.464 1.879 1.054 2.701 3.022 3.562 1.969 0.86 2.904 1.8 3.676 1.8s1.648-0.822 3.616-1.684c1.969-0.861 1.443-1.123 1.907-3.002l-5.523 2.686-6.698-3.362zM19.511 7.336l-8.325-4.662c-0.652-0.365-1.72-0.365-2.372 0l-8.326 4.662c-0.652 0.365-0.652 0.963 0 1.328l8.325 4.662c0.652 0.365 1.72 0.365 2.372 0l5.382-3.014-5.836-1.367c-0.225 0.055-0.472 0.086-0.731 0.086-1.052 0-1.904-0.506-1.904-1.131 0-0.627 0.853-1.133 1.904-1.133 0.816 0 1.51 0.307 1.78 0.734l6.182 2.029 1.549-0.867c0.651-0.364 0.651-0.962 0-1.327zM16.967 16.17c-0.065 0.385 1.283 1.018 1.411-0.107 0.579-5.072-0.416-6.531-0.416-6.531l-1.395 0.781c0-0.001 1.183 1.125 0.4 5.857z"></path>
</symbol>
<symbol id="icon-link" viewBox="0 0 20 20">
<path d="M7.859 14.691l-0.81 0.805c-0.701 0.695-1.843 0.695-2.545 0-0.336-0.334-0.521-0.779-0.521-1.252s0.186-0.916 0.521-1.252l2.98-2.955c0.617-0.613 1.779-1.515 2.626-0.675 0.389 0.386 1.016 0.384 1.403-0.005 0.385-0.389 0.383-1.017-0.006-1.402-1.438-1.428-3.566-1.164-5.419 0.675l-2.98 2.956c-0.715 0.709-1.108 1.654-1.108 2.658 0 1.006 0.394 1.949 1.108 2.658 0.736 0.73 1.702 1.096 2.669 1.096s1.934-0.365 2.669-1.096l0.811-0.805c0.389-0.385 0.391-1.012 0.005-1.4s-1.014-0.39-1.403-0.006zM16.891 3.207c-1.547-1.534-3.709-1.617-5.139-0.197l-1.009 1.002c-0.389 0.386-0.392 1.013-0.006 1.401 0.386 0.389 1.013 0.391 1.402 0.005l1.010-1.001c0.74-0.736 1.711-0.431 2.346 0.197 0.336 0.335 0.522 0.779 0.522 1.252s-0.186 0.917-0.522 1.251l-3.18 3.154c-1.454 1.441-2.136 0.766-2.427 0.477-0.389-0.386-1.016-0.383-1.401 0.005s-0.384 1.017 0.005 1.401c0.668 0.662 1.43 0.99 2.228 0.99 0.977 0 2.010-0.492 2.993-1.467l3.18-3.153c0.712-0.71 1.107-1.654 1.107-2.658s-0.395-1.949-1.109-2.659z"></path>
</symbol>
<symbol id="icon-list" viewBox="0 0 20 20">
<path d="M14.4 9h-5.8c-0.552 0-0.6 0.447-0.6 1s0.048 1 0.6 1h5.8c0.552 0 0.6-0.447 0.6-1s-0.048-1-0.6-1zM16.4 14h-7.8c-0.552 0-0.6 0.447-0.6 1s0.048 1 0.6 1h7.8c0.552 0 0.6-0.447 0.6-1s-0.048-1-0.6-1zM8.6 6h7.8c0.552 0 0.6-0.447 0.6-1s-0.048-1-0.6-1h-7.8c-0.552 0-0.6 0.447-0.6 1s0.048 1 0.6 1zM5.4 9h-1.8c-0.552 0-0.6 0.447-0.6 1s0.048 1 0.6 1h1.8c0.552 0 0.6-0.447 0.6-1s-0.048-1-0.6-1zM5.4 14h-1.8c-0.552 0-0.6 0.447-0.6 1s0.048 1 0.6 1h1.8c0.552 0 0.6-0.447 0.6-1s-0.048-1-0.6-1zM5.4 4h-1.8c-0.552 0-0.6 0.447-0.6 1s0.048 1 0.6 1h1.8c0.552 0 0.6-0.447 0.6-1s-0.048-1-0.6-1z"></path>
</symbol>
<symbol id="icon-lock" viewBox="0 0 20 20">
<path d="M15.8 8h-1.8v-2.4c0-2.897-1.335-4.6-4-4.6s-4 1.703-4 4.6v2.4h-2c-0.553 0-1 0.646-1 1.199v7.801c0 0.549 0.428 1.139 0.951 1.307l1.197 0.387c0.524 0.167 1.402 0.306 1.952 0.306h5.8c0.549 0 1.428-0.139 1.951-0.307l1.196-0.387c0.524-0.167 0.953-0.757 0.953-1.306v-7.801c0-0.553-0.648-1.199-1.2-1.199zM12 8h-4v-2.801c0-1.445 0.797-2.199 2-2.199s2 0.754 2 2.199v2.801z"></path>
</symbol>
<symbol id="icon-menu" viewBox="0 0 20 20">
<path d="M16.4 9h-12.8c-0.552 0-0.6 0.447-0.6 1s0.048 1 0.6 1h12.8c0.552 0 0.6-0.447 0.6-1s-0.048-1-0.6-1zM16.4 13h-12.8c-0.552 0-0.6 0.447-0.6 1s0.048 1 0.6 1h12.8c0.552 0 0.6-0.447 0.6-1s-0.048-1-0.6-1zM3.6 7h12.8c0.552 0 0.6-0.447 0.6-1s-0.048-1-0.6-1h-12.8c-0.552 0-0.6 0.447-0.6 1s0.048 1 0.6 1z"></path>
</symbol>
<symbol id="icon-price-tag" viewBox="0 0 20 20">
<path d="M19.388 0.405c-0.111-0.314-0.454-0.48-0.769-0.371s-0.481 0.455-0.372 0.77c0.929 2.67-0.915 4.664-2.321 5.732l-0.568-0.814c-0.191-0.273-0.618-0.5-0.95-0.504l-3.188 0.014c-0.332-0.006-0.825 0.146-1.097 0.338l-9.394 6.587c-0.455 0.32-0.565 0.947-0.247 1.404l4.269 6.108c0.32 0.455 0.831 0.4 1.287 0.082l9.394-6.588c0.27-0.191 0.582-0.603 0.692-0.918l0.998-3.145c0.11-0.314 0.043-0.793-0.148-1.066l-0.346-0.496c1.888-1.447 3.848-4.004 2.76-7.133zM15.017 9.763c-0.727 0.51-1.731 0.332-2.24-0.396-0.511-0.73-0.333-1.734 0.395-2.246 0.578-0.405 1.328-0.376 1.868 0.017-0.272 0.164-0.459 0.26-0.494 0.275-0.301 0.143-0.43 0.504-0.288 0.805 0.104 0.219 0.321 0.348 0.547 0.348 0.086 0 0.174-0.020 0.257-0.059 0.194-0.092 0.402-0.201 0.619-0.33 0.097 0.594-0.139 1.217-0.664 1.586z"></path>
</symbol>
<symbol id="icon-sound-mix" viewBox="0 0 20 20">
<path d="M5 1.6c0-0.553-0.448-0.6-1-0.6-0.553 0-1 0.047-1 0.6v8.4h2v-8.4zM3 18.4c0 0.551 0.447 0.6 1 0.6 0.552 0 1-0.049 1-0.6v-3.4h-2v3.4zM6.399 11h-4.8c-0.553 0-0.599 0.448-0.599 1v1c0 0.553 0.046 1 0.599 1h4.801c0.55 0 0.6-0.447 0.6-1v-1c0-0.552-0.050-1-0.601-1zM18.399 12h-4.801c-0.552 0-0.598 0.448-0.598 1v1c0 0.553 0.046 1 0.599 1h4.801c0.55 0 0.6-0.447 0.6-1v-1c0-0.552-0.050-1-0.601-1zM13 7c0-0.552-0.050-1-0.601-1h-4.8c-0.553 0-0.599 0.448-0.599 1v1c0 0.553 0.046 1 0.599 1h4.801c0.55 0 0.6-0.447 0.6-1v-1zM11 1.6c0-0.553-0.448-0.6-1-0.6-0.553 0-1 0.047-1 0.6v3.4h2v-3.4zM9 18.4c0 0.551 0.447 0.6 1 0.6 0.552 0 1-0.049 1-0.6v-8.4h-2v8.4zM17 1.6c0-0.553-0.448-0.6-1-0.6-0.553 0-1 0.047-1 0.6v9.4h2v-9.4zM15 18.4c0 0.551 0.447 0.6 1 0.6 0.552 0 1-0.049 1-0.6v-2.4h-2v2.4z"></path>
</symbol>
<symbol id="icon-sweden" viewBox="0 0 20 20">
<path d="M18 4h-9v5h10v-4c0-0.553-0.447-1-1-1zM1 15c0 0.553 0.248 1 0.8 1h5.2v-5h-6v4zM9 16h9c0.553 0 1-0.447 1-1v-4h-10v5zM1 5v4h6v-5h-5.2c-0.552 0-0.8 0.447-0.8 1z"></path>
</symbol>
<symbol id="icon-text" viewBox="0 0 20 20">
<path d="M15.5 11h-11c-0.275 0-0.5 0.225-0.5 0.5v1c0 0.276 0.225 0.5 0.5 0.5h11c0.276 0 0.5-0.224 0.5-0.5v-1c0-0.275-0.224-0.5-0.5-0.5zM15.5 7h-11c-0.275 0-0.5 0.225-0.5 0.5v1c0 0.276 0.225 0.5 0.5 0.5h11c0.276 0 0.5-0.224 0.5-0.5v-1c0-0.275-0.224-0.5-0.5-0.5zM10.5 15h-6c-0.275 0-0.5 0.225-0.5 0.5v1c0 0.276 0.225 0.5 0.5 0.5h6c0.276 0 0.5-0.224 0.5-0.5v-1c0-0.275-0.224-0.5-0.5-0.5zM15.5 3h-11c-0.275 0-0.5 0.225-0.5 0.5v1c0 0.276 0.225 0.5 0.5 0.5h11c0.276 0 0.5-0.224 0.5-0.5v-1c0-0.275-0.224-0.5-0.5-0.5z"></path>
</symbol>
<symbol id="icon-user" viewBox="0 0 20 20">
<path d="M7.725 2.146c-1.016 0.756-1.289 1.953-1.239 2.59 0.064 0.779 0.222 1.793 0.222 1.793s-0.313 0.17-0.313 0.854c0.109 1.717 0.683 0.976 0.801 1.729 0.284 1.814 0.933 1.491 0.933 2.481 0 1.649-0.68 2.42-2.803 3.334-2.13 0.918-4.326 2.073-4.326 4.073v1h18v-1c0-2-2.197-3.155-4.328-4.072-2.123-0.914-2.801-1.684-2.801-3.334 0-0.99 0.647-0.667 0.932-2.481 0.119-0.753 0.692-0.012 0.803-1.729 0-0.684-0.314-0.854-0.314-0.854s0.158-1.014 0.221-1.793c0.065-0.817-0.398-2.561-2.3-3.096-0.333-0.34-0.558-0.881 0.466-1.424-2.24-0.105-2.761 1.067-3.954 1.929z"></path>
</symbol>
<symbol id="icon-v-card" viewBox="0 0 20 20">
<path d="M19 3h-18c-0.553 0-1 0.447-1 1v12c0 0.552 0.447 1 1 1h18c0.553 0 1-0.448 1-1v-12c0-0.552-0.447-1-1-1zM13 7h4v1h-4v-1zM11 14.803c-0.129-0.102-0.293-0.201-0.529-0.303-1.18-0.508-2.961-1.26-2.961-2.176 0-0.551 0.359-0.371 0.518-1.379 0.066-0.418 0.385-0.007 0.445-0.961 0-0.38-0.174-0.475-0.174-0.475s0.088-0.562 0.123-0.996c0.036-0.453-0.221-1.8-1.277-2.097-0.186-0.188-0.311-0.111 0.258-0.412-1.244-0.059-1.534 0.592-2.196 1.071-0.564 0.42-0.717 1.085-0.689 1.439 0.037 0.433 0.125 0.996 0.125 0.996s-0.175 0.094-0.175 0.474c0.061 0.954 0.38 0.543 0.445 0.961 0.158 1.008 0.519 0.828 0.519 1.379 0 0.916-1.781 1.668-2.961 2.176-0.203 0.088-0.349 0.173-0.471 0.26v-9.76h9v9.803zM18 11h-5v-1h5v1z"></path>
</symbol>
<symbol id="icon-html-five" viewBox="0 0 32 32">
<path d="M1.892 0l2.567 28.801 11.524 3.199 11.554-3.204 2.572-28.796h-28.216zM24.52 9.42h-13.517l0.322 3.617h12.874l-0.97 10.844-7.245 2.008-7.237-2.008-0.495-5.547h3.547l0.252 2.82 3.933 1.060 0.009-0.002 3.935-1.062 0.408-4.58h-12.242l-0.953-10.681h17.694l-0.316 3.532z"></path>
</symbol>
</defs>
</svg>
