<!-- Generated by IcoMoon.io -->
<svg version="1.1" xmlns="http://www.w3.org/2000/svg" width="32" height="32" viewBox="0 0 32 32">
<title>album-list</title>
<path fill="none" stroke="#444" stroke-linejoin="miter" stroke-linecap="butt" stroke-miterlimit="4" stroke-width="2" d="M2.667 23.2v-19.733c0-0.442 0.358-0.8 0.8-0.8h19.733c0.442 0 0.8 0.358 0.8 0.8v19.733c0 0.442-0.358 0.8-0.8 0.8h-19.733c-0.442 0-0.8-0.358-0.8-0.8z"></path>
<path fill="none" stroke="#444" stroke-linejoin="miter" stroke-linecap="round" stroke-miterlimit="4" stroke-width="2" d="M10.667 29.333h17.867c0.442 0 0.8-0.358 0.8-0.8v-17.867"></path>
<path d="M14.667 16.667c0 1.105-0.895 2-2 2s-2-0.895-2-2 0.895-2 2-2c1.105 0 2 0.895 2 2z"></path>
<path fill="none" stroke="#444" stroke-linejoin="miter" stroke-linecap="round" stroke-miterlimit="4" stroke-width="2" d="M14.667 16.667c0 1.105-0.895 2-2 2s-2-0.895-2-2 0.895-2 2-2c1.105 0 2 0.895 2 2zM14.667 16.667v-7.867c0-0.442 0.358-0.8 0.8-0.8h1.867"></path>
</svg>
