<!-- Generated by IcoMoon.io -->
<svg version="1.1" xmlns="http://www.w3.org/2000/svg" width="33" height="32" viewBox="0 0 33 32">
<title>apollo-graphql-compact</title>
<path d="M16.064-0.021c-0.062 0.003-0.294 0.022-0.519 0.039-2.804 0.208-5.648 1.245-7.979 2.911-0.771 0.55-1.38 1.066-2.059 1.744-3.901 3.904-5.508 9.49-4.288 14.917 0.499 2.227 1.565 4.468 2.978 6.268 2.218 2.83 5.258 4.824 8.669 5.688 1.388 0.353 2.541 0.496 3.996 0.496 1.436 0 2.493-0.129 3.862-0.463 1.966-0.482 3.694-1.276 5.421-2.485 1.655-1.161 3.194-2.788 4.299-4.54 1.425-2.266 2.235-4.768 2.434-7.513 0.042-0.578 0.017-2.008-0.045-2.597-0.123-1.169-0.438-2.712-0.62-3.034-0.073-0.126-0.278-0.289-0.429-0.342-0.053-0.017-0.171-0.031-0.266-0.031-0.421 0-0.774 0.351-0.774 0.763 0 0.098 0.045 0.334 0.109 0.589 0.555 2.159 0.6 4.532 0.126 6.697-0.606 2.774-1.958 5.219-3.996 7.224-0.951 0.934-1.868 1.624-3.054 2.302-2.768 1.585-6.209 2.185-9.437 1.646-2.451-0.407-4.58-1.349-6.602-2.922-0.951-0.74-2.109-1.96-2.827-2.981-1.24-1.761-2.019-3.618-2.423-5.774-0.205-1.099-0.275-2.558-0.179-3.744 0.146-1.8 0.597-3.472 1.363-5.056 0.353-0.738 0.572-1.122 0.996-1.758 0.864-1.307 2.008-2.53 3.273-3.5 1.484-1.141 3.245-2.008 5.026-2.474 0.962-0.252 1.73-0.379 2.706-0.449 3.531-0.252 6.964 0.763 9.76 2.891 0.208 0.157 0.426 0.328 0.485 0.381l0.107 0.093-0.042 0.118c-0.216 0.606-0.056 1.36 0.398 1.887 0.233 0.269 0.653 0.522 1.010 0.606 0.244 0.059 0.667 0.059 0.914 0 0.625-0.149 1.209-0.684 1.394-1.279 0.208-0.665 0.087-1.321-0.339-1.854-0.471-0.589-1.282-0.853-2.030-0.656l-0.163 0.042-0.23-0.191c-0.934-0.782-2.064-1.506-3.253-2.081-1.929-0.934-3.867-1.436-6.075-1.571-0.423-0.025-1.425-0.031-1.697-0.008z"></path>
<path d="M14.404 9.206c-0.297 0.768-0.942 2.451-1.439 3.738s-1.514 3.932-2.263 5.875c-0.746 1.944-1.366 3.542-1.371 3.553-0.008 0.014 0.78 0.022 1.747 0.022h1.764l0.104-0.289c0.059-0.157 0.266-0.712 0.46-1.234l0.353-0.945h2.647c2.109 0 2.647-0.008 2.639-0.036-0.028-0.076-0.46-1.31-0.69-1.969l-0.247-0.701-3.503-0.028 1.139-3.138c0.684-1.885 1.147-3.119 1.155-3.091 0.011 0.025 0.466 1.318 1.012 2.872s1.45 4.111 2.005 5.685l1.007 2.861 1.756 0.008c0.965 0.003 1.756 0 1.756-0.006s-0.227-0.603-0.508-1.324c-0.28-0.724-0.881-2.28-1.335-3.461s-0.965-2.504-1.136-2.945c-0.168-0.44-0.463-1.203-0.653-1.697s-0.687-1.786-1.108-2.875-0.788-2.044-0.819-2.126l-0.053-0.146h-3.884z"></path>
</svg>
