<!-- Generated by IcoMoon.io -->
<svg version="1.1" xmlns="http://www.w3.org/2000/svg" width="53" height="32" viewBox="0 0 53 32">
<title>Nextjs-2</title>
<path d="M12.63 8.421h10.054v0.795h-9.132v5.985h8.588v0.795h-8.588v6.571h9.237v0.795h-10.159v-14.943zM23.585 8.421h1.068l4.734 6.571 4.838-6.571 6.581-8.347-10.812 15.609 5.572 7.681h-1.11l-5.069-6.99-5.090 6.99h-1.089l5.613-7.681-5.236-7.262zM35.964 9.216v-0.795h11.457v0.795h-5.278v14.147h-0.922v-14.147h-5.257z"></path>
<path d="M0.052 8.421h1.152l15.886 23.657-6.565-8.715-9.509-13.812-0.042 13.812h-0.922z"></path>
<path d="M47.328 22.328c0.191 0 0.33-0.145 0.33-0.333s-0.139-0.333-0.33-0.333c-0.188 0-0.33 0.145-0.33 0.333s0.141 0.333 0.33 0.333zM48.234 21.453c0 0.554 0.401 0.916 0.986 0.916 0.623 0 1-0.373 1-1.021v-2.281h-0.502v2.278c0 0.36-0.182 0.552-0.502 0.552-0.287 0-0.482-0.179-0.489-0.445h-0.493zM50.877 21.424c0.036 0.576 0.518 0.945 1.235 0.945 0.767 0 1.246-0.386 1.246-1.003 0-0.485-0.273-0.753-0.937-0.907l-0.356-0.087c-0.421-0.098-0.592-0.23-0.592-0.46 0-0.29 0.264-0.48 0.661-0.48 0.377 0 0.637 0.185 0.684 0.482h0.489c-0.029-0.543-0.509-0.925-1.166-0.925-0.706 0-1.177 0.382-1.177 0.956 0 0.474 0.267 0.755 0.852 0.891l0.417 0.101c0.428 0.101 0.616 0.248 0.616 0.494 0 0.286-0.296 0.494-0.699 0.494-0.433 0-0.733-0.194-0.776-0.5h-0.498z"></path>
</svg>
