<!-- Generated by IcoMoon.io -->
<svg version="1.1" xmlns="http://www.w3.org/2000/svg" width="32" height="32" viewBox="0 0 32 32">
<title>nodejs-2</title>
<path d="M16 29.313c-0.367 0-0.709-0.099-1.029-0.269l-3.252-1.931c-0.487-0.271-0.243-0.369-0.096-0.419 0.661-0.22 0.784-0.268 1.468-0.657 0.075-0.049 0.172-0.027 0.247 0.023l2.493 1.493c0.099 0.048 0.221 0.048 0.295 0l9.759-5.649c0.099-0.048 0.147-0.147 0.147-0.269v-11.277c0-0.121-0.048-0.22-0.147-0.268l-9.759-5.625c-0.097-0.049-0.22-0.049-0.295 0l-9.761 5.624c-0.097 0.048-0.147 0.172-0.147 0.268v11.276c0 0.097 0.049 0.221 0.147 0.269l2.667 1.543c1.443 0.731 2.349-0.127 2.349-0.98v-11.128c0-0.147 0.121-0.295 0.293-0.295h1.248c0.144 0 0.293 0.123 0.293 0.295v11.129c0 1.932-1.051 3.059-2.885 3.059-0.563 0-1.003 0-2.251-0.613l-2.567-1.465c-0.619-0.365-1.028-1.028-1.028-1.787v0-11.277c0-0.733 0.391-1.419 1.028-1.785l9.755-5.649c0.298-0.162 0.652-0.258 1.029-0.258s0.731 0.096 1.041 0.264l-0.011-0.006 9.756 5.649c0.639 0.365 1.028 1.052 1.028 1.785v11.277c0 0.732-0.391 1.417-1.028 1.787l-9.756 5.648c-0.321 0.147-0.688 0.22-1.031 0.22zM19.008 21.559c-4.28 0-5.16-1.957-5.16-3.619 0-0.147 0.123-0.295 0.293-0.295h1.272c0.147 0 0.268 0.097 0.268 0.245 0.196 1.295 0.757 1.932 3.352 1.932 2.053 0 2.936-0.467 2.936-1.567 0-0.636-0.247-1.1-3.449-1.417-2.665-0.267-4.328-0.857-4.328-2.984 0-1.98 1.663-3.155 4.452-3.155 3.129 0 4.671 1.079 4.865 3.424-0.003 0.083-0.030 0.159-0.075 0.221l0.001-0.001c-0.049 0.048-0.121 0.097-0.195 0.097h-1.271c-0.131-0.003-0.24-0.094-0.269-0.217l-0-0.002c-0.295-1.349-1.052-1.787-3.056-1.787-2.252 0-2.521 0.783-2.521 1.369 0 0.708 0.316 0.928 3.352 1.32 3.008 0.391 4.427 0.953 4.427 3.059-0.027 2.153-1.785 3.375-4.893 3.375z"></path>
</svg>
