<!-- Generated by IcoMoon.io -->
<svg version="1.1" xmlns="http://www.w3.org/2000/svg" width="26" height="32" viewBox="0 0 26 32">
<title>prisma</title>
<path d="M25.92 24.45l-11.016-23.393c-0.278-0.574-0.841-0.971-1.501-1.006l-0.004-0c-0.035-0.003-0.076-0.004-0.117-0.004-0.629 0-1.18 0.332-1.488 0.831l-0.004 0.008-11.948 19.351c-0.171 0.271-0.273 0.602-0.273 0.956 0 0.367 0.109 0.709 0.297 0.994l-0.004-0.007 5.841 9.046c0.34 0.517 0.918 0.854 1.574 0.854 0.191 0 0.375-0.028 0.549-0.081l-0.013 0.004 16.951-5.014c0.522-0.156 0.939-0.521 1.162-0.996l0.005-0.011c0.103-0.221 0.164-0.48 0.164-0.753 0-0.282-0.064-0.549-0.179-0.787l0.005 0.011zM23.454 25.453l-14.384 4.253c-0.439 0.131-0.86-0.25-0.769-0.693l5.139-24.607c0.096-0.46 0.732-0.533 0.933-0.107l9.513 20.202c0.041 0.085 0.065 0.185 0.065 0.291 0 0.312-0.208 0.575-0.493 0.659l-0.005 0.001z"></path>
</svg>
