<!-- Generated by IcoMoon.io -->
<svg version="1.1" xmlns="http://www.w3.org/2000/svg" width="32" height="32" viewBox="0 0 32 32">
<title>react-2</title>
<path d="M18.38 14.993c0 1.314-1.066 2.38-2.38 2.38s-2.38-1.066-2.38-2.38c0-1.314 1.066-2.38 2.38-2.38s2.38 1.066 2.38 2.38z"></path>
<path d="M9.336 19.725l-0.527-0.135c-3.912-0.988-6.156-2.668-6.156-4.603 0-1.936 2.245-3.615 6.156-4.603l0.527-0.133 0.148 0.521c0.453 1.55 0.968 2.87 1.582 4.132l-0.068-0.154 0.113 0.237-0.113 0.237c-0.613 1.284-1.121 2.615-1.515 3.98l-0.148 0.52zM8.567 11.599c-2.972 0.837-4.797 2.115-4.797 3.389 0 1.272 1.824 2.551 4.797 3.387 0.364-1.157 0.804-2.289 1.313-3.387-0.445-0.919-0.89-2.041-1.26-3.197l-0.053-0.192zM22.663 19.725l-0.147-0.523c-0.454-1.552-0.97-2.871-1.584-4.134l0.068 0.155-0.113-0.236 0.113-0.239c0.613-1.281 1.119-2.613 1.516-3.979l0.147-0.52 0.527 0.133c3.913 0.988 6.156 2.667 6.156 4.604 0 1.936-2.244 3.615-6.156 4.603l-0.527 0.135zM22.116 14.988c0.533 1.155 0.977 2.291 1.316 3.387 2.973-0.836 4.799-2.115 4.799-3.387 0-1.275-1.824-2.551-4.799-3.389-0.426 1.351-0.873 2.473-1.387 3.556l0.071-0.167z"></path>
<path d="M8.559 11.593l-0.147-0.52c-1.101-3.877-0.768-6.655 0.916-7.623 1.647-0.953 4.296 0.173 7.071 3.020l0.379 0.389-0.379 0.388c-0.955 0.992-1.84 2.070-2.637 3.213l-0.057 0.086-0.151 0.216-0.261 0.021c-1.563 0.125-2.999 0.366-4.39 0.717l0.181-0.039-0.525 0.131zM10.668 4.221c-0.299 0-0.563 0.065-0.785 0.193-1.104 0.636-1.299 2.851-0.539 5.84 1.188-0.263 2.387-0.451 3.595-0.556 0.748-1.055 1.498-1.978 2.302-2.85l-0.018 0.019c-1.737-1.689-3.377-2.647-4.555-2.647zM21.331 26.867c-1.584 0-3.619-1.195-5.731-3.363l-0.377-0.388 0.377-0.387c0.955-0.994 1.841-2.072 2.638-3.216l0.057-0.086 0.149-0.213 0.259-0.025c1.562-0.123 2.998-0.362 4.39-0.714l-0.179 0.038 0.527-0.133 0.148 0.521c1.096 3.875 0.764 6.656-0.917 7.624-0.374 0.216-0.822 0.343-1.301 0.343-0.014 0-0.028-0-0.042-0l0.002 0zM16.777 23.107c1.736 1.689 3.377 2.648 4.553 2.648 0.3 0 0.564-0.067 0.785-0.193 1.105-0.637 1.301-2.856 0.539-5.845-1.187 0.264-2.387 0.453-3.597 0.559-0.744 1.056-1.493 1.979-2.297 2.851l0.017-0.019z"></path>
<path d="M23.44 11.593l-0.527-0.132c-1.212-0.314-2.648-0.555-4.119-0.673l-0.091-0.006-0.259-0.023-0.149-0.216c-0.852-1.229-1.738-2.306-2.702-3.307l0.008 0.008-0.377-0.388 0.377-0.387c2.773-2.845 5.421-3.972 7.071-3.020 1.683 0.969 2.017 3.747 0.917 7.623l-0.148 0.52zM19.057 9.699c1.272 0.113 2.477 0.304 3.597 0.556 0.761-2.989 0.567-5.204-0.539-5.841-1.099-0.636-3.167 0.337-5.339 2.455 0.821 0.893 1.584 1.837 2.28 2.831zM10.668 26.867c-0.011 0-0.024 0-0.038 0-0.479 0-0.928-0.127-1.315-0.35l0.013 0.007c-1.684-0.968-2.017-3.748-0.917-7.624l0.144-0.521 0.527 0.133c1.285 0.324 2.701 0.552 4.211 0.676l0.259 0.025 0.151 0.213c0.805 1.171 1.707 2.276 2.693 3.303l0.379 0.387-0.379 0.388c-2.111 2.169-4.145 3.363-5.727 3.363zM9.344 19.717c-0.76 2.989-0.565 5.208 0.539 5.845 1.1 0.627 3.161-0.34 5.34-2.456-0.786-0.853-1.536-1.776-2.226-2.744l-0.059-0.086c-1.358-0.122-2.584-0.319-3.78-0.595l0.186 0.036z"></path>
<path d="M16 20.417c-0.916 0-1.856-0.039-2.8-0.117l-0.261-0.023-0.151-0.216c-0.453-0.639-0.949-1.408-1.414-2.198l-0.087-0.16c-0.373-0.627-0.805-1.44-1.204-2.271l-0.090-0.208-0.112-0.236 0.112-0.239c0.399-0.843 0.829-1.669 1.295-2.477 0.463-0.795 0.968-1.589 1.501-2.36l0.151-0.213 0.261-0.024c0.838-0.075 1.814-0.117 2.799-0.117s1.96 0.043 2.924 0.126l-0.125-0.009 0.259 0.025 0.151 0.213c0.981 1.389 1.913 2.975 2.713 4.636l0.087 0.201 0.111 0.239-0.111 0.236c-0.883 1.861-1.816 3.447-2.87 4.941l0.070-0.104-0.151 0.216-0.259 0.023c-0.941 0.076-1.883 0.116-2.797 0.116zM13.555 19.212c1.647 0.124 3.244 0.124 4.889 0 0.835-1.205 1.648-2.588 2.358-4.032l0.085-0.192c-0.79-1.634-1.603-3.017-2.512-4.33l0.069 0.106c-0.732-0.060-1.584-0.094-2.445-0.094s-1.713 0.034-2.556 0.101l0.111-0.007c-0.841 1.207-1.654 2.591-2.36 4.037l-0.083 0.187c0.797 1.637 1.61 3.021 2.515 4.336l-0.073-0.112z"></path>
</svg>
