<!-- Generated by IcoMoon.io -->
<svg version="1.1" xmlns="http://www.w3.org/2000/svg" width="38" height="32" viewBox="0 0 38 32">
<title>robotcorp</title>
<path d="M13.249 7.511h11.421c0.626 0 1.122-0.503 1.128-1.121 0-0.618-0.502-1.122-1.121-1.122h-11.428c-0.618 0-1.122 0.504-1.122 1.122s0.504 1.121 1.122 1.121zM19.813 12.611c0 0.738 0.598 1.337 1.337 1.337s1.337-0.598 1.337-1.337v0c0-0.738-0.598-1.337-1.337-1.337s-1.337 0.598-1.337 1.337v0zM15.439 12.611c0 0.738 0.599 1.337 1.337 1.337s1.337-0.599 1.337-1.337v0c0-0.738-0.598-1.337-1.337-1.337s-1.337 0.598-1.337 1.337v0zM30.891 5.845c0.031 0.242 0.048 0.521 0.048 0.805 0 2.376-1.232 4.465-3.091 5.662l-0.027 0.016c-0.125 0.075-0.207 0.21-0.207 0.364 0 0.108 0.040 0.206 0.107 0.281l-0-0c1.516 1.762 2.51 4.014 2.718 6.489l0.003 0.042c0.002 0.015 0.003 0.031 0.003 0.048 0 0.233-0.189 0.422-0.422 0.422-0.002 0-0.003 0-0.005-0h-22.115c-0.236-0.004-0.425-0.197-0.425-0.433 0-0.013 0.001-0.026 0.002-0.039l-0 0.002c0.213-2.517 1.209-4.769 2.74-6.546l-0.013 0.015c0.066-0.073 0.106-0.171 0.106-0.278 0-0.153-0.082-0.286-0.205-0.359l-0.002-0.001c-1.89-1.212-3.125-3.301-3.125-5.68 0-0.475 0.049-0.938 0.143-1.385l-0.008 0.044c0.543-2.778 2.766-4.91 5.548-5.31l0.036-0.004c0.304-0.048 0.654-0.076 1.010-0.076 1.015 0 1.977 0.224 2.841 0.624l-0.042-0.017c0.72 0.339 1.563 0.537 2.452 0.537s1.733-0.198 2.488-0.552l-0.036 0.015c0.823-0.386 1.786-0.611 2.803-0.611 0.365 0 0.723 0.029 1.072 0.085l-0.038-0.005c2.943 0.436 5.3 2.889 5.643 5.845zM8.035 21.989h21.849c0.268 0 0.47 0.242 0.423 0.511-0.96 5.394-5.67 9.5-11.347 9.5s-10.387-4.098-11.347-9.5c-0.005-0.024-0.007-0.051-0.007-0.080 0-0.238 0.192-0.431 0.43-0.431h0zM3.648 7.471c-2.136 0.873-3.648 2.956-3.648 5.402v0.961c0 2.446 1.519 4.522 3.648 5.402 0.049 0.021 0.105 0.033 0.165 0.033 0.236 0 0.427-0.191 0.427-0.427 0-0.001 0-0.003-0-0.004v0-10.971c-0.002-0.236-0.194-0.428-0.43-0.428-0.058 0-0.113 0.011-0.164 0.032l0.003-0.001zM33.68 7.867c0-0.001 0-0.002 0-0.003 0-0.236 0.191-0.427 0.427-0.427 0.060 0 0.116 0.012 0.168 0.034l-0.003-0.001c2.136 0.88 3.648 2.956 3.648 5.402v0.96c0 2.446-1.512 4.529-3.648 5.402-0.048 0.020-0.103 0.031-0.161 0.031-0.237 0-0.429-0.191-0.43-0.427v-10.971z"></path>
</svg>
