<!-- Generated by IcoMoon.io -->
<svg version="1.1" xmlns="http://www.w3.org/2000/svg" width="32" height="32" viewBox="0 0 32 32">
<title>swimming</title>
<path fill="none" stroke-linejoin="round" stroke-linecap="round" stroke-miterlimit="4" stroke-width="2" stroke="#000" d="M4 20c3.31 0 5.793-4 5.793-4s2.483 4 5.793 4c3.31 0 6.621-4 6.621-4s3.31 4 5.793 4"></path>
<path fill="none" stroke-linejoin="round" stroke-linecap="round" stroke-miterlimit="4" stroke-width="2" stroke="#000" d="M4 26.667c3.31 0 5.793-4 5.793-4s2.483 4 5.793 4c3.31 0 6.621-4 6.621-4s3.31 4 5.793 4"></path>
<path fill="none" stroke-linejoin="round" stroke-linecap="round" stroke-miterlimit="4" stroke-width="2" stroke="#000" d="M6.667 14l5.333-3.333-1.583-1.978c-0.593-0.741-0.455-1.827 0.304-2.396v0c0.716-0.537 1.728-0.419 2.301 0.269l5.644 6.772"></path>
<path fill="none" stroke-linejoin="round" stroke-linecap="round" stroke-miterlimit="4" stroke-width="2" stroke="#000" d="M22 10.667c1.841 0 3.333-1.492 3.333-3.333s-1.492-3.333-3.333-3.333c-1.841 0-3.333 1.492-3.333 3.333s1.492 3.333 3.333 3.333z"></path>
</svg>
