<svg xmlns="http://www.w3.org/2000/svg"><defs><style>.icon { display: none; }.icon:target { display: inline; }</style></defs><svg viewBox="0 0 1199.8295 1173"><g id="src-1" class="icon"><path d="m599.49 29.7c-2.2.1-10.5.8-18.5 1.4-100 7.4-201.4 44.4-284.5 103.8-27.5 19.6-49.2 38-73.4 62.2-139.1 139.2-196.4 338.4-152.9 531.9 17.8 79.4 55.8 159.3 106.2 223.5 79.1 100.9 187.5 172 309.1 202.8 49.5 12.6 90.6 17.7 142.5 17.7 51.2 0 88.9-4.6 137.7-16.5 70.1-17.2 131.7-45.5 193.3-88.6 59-41.4 113.9-99.4 153.3-161.9 50.8-80.8 79.7-170 86.8-267.9 1.5-20.6.6-71.6-1.6-92.6-4.4-41.7-15.6-96.7-22.1-108.2-2.6-4.5-9.9-10.3-15.3-12.2-1.9-.6-6.1-1.1-9.5-1.1-15 0-27.6 12.5-27.6 27.2 0 3.5 1.6 11.9 3.9 21 19.8 77 21.4 161.6 4.5 238.8-21.6 98.9-69.8 186.1-142.5 257.6-33.9 33.3-66.6 57.9-108.9 82.1-98.7 56.5-221.4 77.9-336.5 58.7-87.4-14.5-163.3-48.1-235.4-104.2-33.9-26.4-75.2-69.9-100.8-106.3-44.2-62.8-72-129-86.4-205.9-7.3-39.2-9.8-91.2-6.4-133.5 5.2-64.2 21.3-123.8 48.6-180.3 12.6-26.3 20.4-40 35.5-62.7 30.8-46.6 71.6-90.2 116.7-124.8 52.9-40.7 115.7-71.6 179.2-88.2 34.3-9 61.7-13.5 96.5-16 125.9-9 248.3 27.2 348 103.1 7.4 5.6 15.2 11.7 17.3 13.6l3.8 3.3-1.5 4.2c-7.7 21.6-2 48.5 14.2 67.3 8.3 9.6 23.3 18.6 36 21.6 8.7 2.1 23.8 2.1 32.6 0 22.3-5.3 43.1-24.4 49.7-45.6 7.4-23.7 3.1-47.1-12.1-66.1-16.8-21-45.7-30.4-72.4-23.4l-5.8 1.5-8.2-6.8c-33.3-27.9-73.6-53.7-116-74.2-68.8-33.3-137.9-51.2-216.6-56-15.1-.9-50.8-1.1-60.5-.3z"/><path d="m540.29 358.7c-10.6 27.4-33.6 87.4-51.3 133.3s-54 140.2-80.7 209.5c-26.6 69.3-48.7 126.3-48.9 126.7-.3.5 27.8.8 62.3.8h62.9l3.7-10.3c2.1-5.6 9.5-25.4 16.4-44l12.6-33.7h94.4c75.2 0 94.4-.3 94.1-1.3-1-2.7-16.4-46.7-24.6-70.2l-8.8-25-62.5-.5-62.4-.5 40.6-111.9c24.4-67.2 40.9-111.2 41.2-110.2.4.9 16.6 47 36.1 102.4s51.7 146.6 71.5 202.7l35.9 102 62.6.3c34.4.1 62.6 0 62.6-.2s-8.1-21.5-18.1-47.2c-10-25.8-31.4-81.3-47.6-123.4s-34.4-89.3-40.5-105c-6-15.7-16.5-42.9-23.3-60.5s-24.5-63.7-39.5-102.5-28.1-72.9-29.2-75.8l-1.9-5.2h-138.5z"/></g></svg><svg viewBox="0 0 481.72803 512"><g id="src-2" class="icon">
	<path fill="#264de4" d="M71.357 460.819L30.272 0h451.456l-41.129 460.746L255.724 512z"/>
	<path fill="#2965f1" d="M405.388 431.408l35.148-393.73H256v435.146z"/>
	<path fill="#ebebeb" d="M124.46 208.59l5.065 56.517H256V208.59zM119.419 150.715H256V94.197H114.281zM256 355.372l-.248.066-62.944-16.996-4.023-45.076h-56.736l7.919 88.741 115.772 32.14.26-.073z"/>
	<path fill="#fff" d="M255.805 208.59v56.517H325.4l-6.56 73.299-63.035 17.013v58.8l115.864-32.112.85-9.549 13.28-148.792 1.38-15.176 10.203-114.393H255.805v56.518h79.639L330.3 208.59z"/>
</g></svg><svg viewBox="0 0 255.99886 287.64536"><g id="src-3" class="icon"><path d="M152.576 32.963l59.146 34.15a25.819 25.819 0 0 1 5.818-4.604c12.266-7.052 27.912-2.865 35.037 9.402 7.052 12.267 2.865 27.912-9.402 35.037a25.698 25.698 0 0 1-6.831 2.72v68.325a25.7 25.7 0 0 1 6.758 2.702c12.34 7.125 16.527 22.771 9.402 35.038-7.052 12.266-22.771 16.453-35.038 9.402a25.464 25.464 0 0 1-6.34-5.147l-58.786 33.94a25.671 25.671 0 0 1 1.295 8.08c0 14.103-11.458 25.636-25.635 25.636-14.177 0-25.635-11.46-25.635-25.636 0-2.52.362-4.954 1.037-7.253l-59.13-34.14a25.824 25.824 0 0 1-5.738 4.52c-12.34 7.051-27.986 2.864-35.038-9.402-7.051-12.267-2.864-27.913 9.402-35.038a25.71 25.71 0 0 1 6.758-2.703v-68.324a25.698 25.698 0 0 1-6.831-2.72C.558 99.897-3.629 84.178 3.423 71.911c7.052-12.267 22.77-16.454 35.037-9.402a25.82 25.82 0 0 1 5.79 4.575l59.163-34.159a25.707 25.707 0 0 1-1.048-7.29C102.365 11.46 113.823 0 128 0c14.177 0 25.635 11.459 25.635 25.635 0 2.548-.37 5.007-1.059 7.328zm-6.162 10.522l59.287 34.23a25.599 25.599 0 0 0 2.437 19.831c3.609 6.278 9.488 10.44 16.013 12.062v68.41c-.333.081-.664.17-.993.264L145.725 44.17c.234-.224.464-.452.689-.684zm-36.123.7l-77.432 134.11a25.824 25.824 0 0 0-1.01-.27v-68.417c6.525-1.622 12.404-5.784 16.013-12.062a25.6 25.6 0 0 0 2.427-19.869l59.27-34.22c.239.247.483.49.732.727zm24.872 6.075l77.414 134.08a25.492 25.492 0 0 0-4.513 5.757 25.7 25.7 0 0 0-2.702 6.758H50.64a25.71 25.71 0 0 0-2.704-6.758 25.825 25.825 0 0 0-4.506-5.724l77.429-134.107A25.715 25.715 0 0 0 128 51.27c2.487 0 4.89-.352 7.163-1.01zm11.795 194.478l58.902-34.008a25.865 25.865 0 0 1-.473-1.682H50.607c-.082.333-.171.663-.266.992l59.19 34.175A25.558 25.558 0 0 1 128 236.373a25.564 25.564 0 0 1 18.958 8.365z" fill="#E535AB" fill-rule="evenodd"/></g></svg><svg viewBox="0 0 481 512"><g id="src-4" class="icon">
  <title>HTML5 Logo Badge</title>
  <path fill="#E34F26" d="M71,460 L30,0 481,0 440,460 255,512"/>
  <path fill="#EF652A" d="M256,472 L405,431 440,37 256,37"/>
  <path fill="#EBEBEB" d="M256,208 L181,208 176,150 256,150 256,94 255,94 114,94 115,109 129,265 256,265zM256,355 L255,355 192,338 188,293 158,293 132,293 139,382 255,414 256,414z"/>
  <path fill="#FFF" d="M255,208 L255,265 325,265 318,338 255,355 255,414 371,382 372,372 385,223 387,208 371,208zM255,94 L255,129 255,150 255,150 392,150 392,150 392,150 393,138 396,109 397,94z"/>
</g></svg><svg viewBox="0 0 124 141.53065"><g id="src-5" class="icon"><path d="M10.383 126.894L0 0l124 .255-10.979 126.639-50.553 14.638z" fill="#e9ca32"/><path d="M62.468 129.277V12.085l51.064.17-9.106 104.851z" fill="#ffde25"/><g fill="#fff"><path d="M57 26H43.5v78L33 102V91.5l-12.5-2V113l36.5 9.5zM67.127 26H104.5L102 40.95H81.394v24.533H102L99.5 115l-32.373 7.5V107L89 99.5 90.263 79l-23.136 3.35z"/></g></g></svg><svg viewBox="0 0 23.187721 32.00274"><g id="src-6" class="icon"><path d="m15.9.087.854 1.604c.192.296.4.558.645.802a22.406 22.406 0 0 1 2.004 2.266c1.447 1.9 2.423 4.01 3.12 6.292.418 1.394.645 2.824.662 4.27.07 4.323-1.412 8.035-4.4 11.12a12.7 12.7 0 0 1 -1.57 1.342c-.296 0-.436-.227-.558-.436a3.589 3.589 0 0 1 -.436-1.255c-.105-.523-.174-1.046-.14-1.586v-.244c-.024-.052-.285-24.052-.181-24.175z" fill="#599636"/><path d="m15.9.034c-.035-.07-.07-.017-.105.017.017.35-.105.662-.296.96-.21.296-.488.523-.767.767-1.55 1.342-2.77 2.963-3.747 4.776-1.3 2.44-1.97 5.055-2.16 7.808-.087.993.314 4.497.627 5.508.854 2.684 2.388 4.933 4.375 6.885.488.47 1.01.906 1.55 1.325.157 0 .174-.14.21-.244a4.78 4.78 0 0 0 .157-.68l.35-2.614z" fill="#6cac48"/><path d="m16.754 28.845c.035-.4.227-.732.436-1.063-.21-.087-.366-.26-.488-.453a3.235 3.235 0 0 1 -.26-.575c-.244-.732-.296-1.5-.366-2.248v-.453c-.087.07-.105.662-.105.75a17.37 17.37 0 0 1 -.314 2.353c-.052.314-.087.627-.28.906 0 .035 0 .07.017.122.314.924.4 1.865.453 2.824v.35c0 .418-.017.33.33.47.14.052.296.07.436.174.105 0 .122-.087.122-.157l-.052-.575v-1.604c-.017-.28.035-.558.07-.82z" fill="#c2bfbf"/></g></svg><svg viewBox="0 0 1023.5 1023.4749"><g id="src-7" class="icon"><path d="m478.5.6c-2.2.2-9.2.9-15.5 1.4-145.3 13.1-281.4 91.5-367.6 212-48 67-78.7 143-90.3 223.5-4.1 28.1-4.6 36.4-4.6 74.5s.5 46.4 4.6 74.5c27.8 192.1 164.5 353.5 349.9 413.3 33.2 10.7 68.2 18 108 22.4 15.5 1.7 82.5 1.7 98 0 68.7-7.6 126.9-24.6 184.3-53.9 8.8-4.5 10.5-5.7 9.3-6.7-.8-.6-38.3-50.9-83.3-111.7l-81.8-110.5-102.5-151.7c-56.4-83.4-102.8-151.6-103.2-151.6-.4-.1-.8 67.3-1 149.6-.3 144.1-.4 149.9-2.2 153.3-2.6 4.9-4.6 6.9-8.8 9.1-3.2 1.6-6 1.9-21.1 1.9h-17.3l-4.6-2.9c-3-1.9-5.2-4.4-6.7-7.3l-2.1-4.5.2-200.5.3-200.6 3.1-3.9c1.6-2.1 5-4.8 7.4-6.1 4.1-2 5.7-2.2 23-2.2 20.4 0 23.8.8 29.1 6.6 1.5 1.6 57 85.2 123.4 185.9s157.2 238.2 201.8 305.7l81 122.7 4.1-2.7c36.3-23.6 74.7-57.2 105.1-92.2 64.7-74.3 106.4-164.9 120.4-261.5 4.1-28.1 4.6-36.4 4.6-74.5s-.5-46.4-4.6-74.5c-27.8-192.1-164.5-353.5-349.9-413.3-32.7-10.6-67.5-17.9-106.5-22.3-9.6-1-75.7-2.1-84-1.3zm209.4 309.4c4.8 2.4 8.7 7 10.1 11.8.8 2.6 1 58.2.8 183.5l-.3 179.8-31.7-48.6-31.8-48.6v-130.7c0-84.5.4-132 1-134.3 1.6-5.6 5.1-10 9.9-12.6 4.1-2.1 5.6-2.3 21.3-2.3 14.8 0 17.4.2 20.7 2z"/><path d="m784.3 945.1c-3.5 2.2-4.6 3.7-1.5 2 2.2-1.3 5.8-4 5.2-4.1-.3 0-2 1-3.7 2.1zm-6.9 4.5c-1.8 1.4-1.8 1.5.4.4 1.2-.6 2.2-1.3 2.2-1.5 0-.8-.5-.6-2.6 1.1zm-5 3c-1.8 1.4-1.8 1.5.4.4 1.2-.6 2.2-1.3 2.2-1.5 0-.8-.5-.6-2.6 1.1zm-5 3c-1.8 1.4-1.8 1.5.4.4 1.2-.6 2.2-1.3 2.2-1.5 0-.8-.5-.6-2.6 1.1zm-7.6 4c-3.8 2-3.6 2.8.2.9 1.7-.9 3-1.8 3-2 0-.7-.1-.6-3.2 1.1z"/></g></svg><svg viewBox="0 0 255.39598 281.36188"><g id="src-8" class="icon"><g fill="#8CC84B"><path d="M116.504 3.58c6.962-3.985 16.03-4.003 22.986 0 34.995 19.774 70.001 39.517 104.99 59.303 6.581 3.707 10.983 11.031 10.916 18.614v118.968c.049 7.897-4.788 15.396-11.731 19.019-34.88 19.665-69.742 39.354-104.616 59.019-7.106 4.063-16.356 3.75-23.24-.646-10.457-6.062-20.932-12.094-31.39-18.15-2.137-1.274-4.546-2.288-6.055-4.36 1.334-1.798 3.719-2.022 5.657-2.807 4.365-1.388 8.374-3.616 12.384-5.778 1.014-.694 2.252-.428 3.224.193 8.942 5.127 17.805 10.403 26.777 15.481 1.914 1.105 3.852-.362 5.488-1.274 34.228-19.345 68.498-38.617 102.72-57.968 1.268-.61 1.969-1.956 1.866-3.345.024-39.245.006-78.497.012-117.742.145-1.576-.767-3.025-2.192-3.67-34.759-19.575-69.5-39.18-104.253-58.76a3.621 3.621 0 0 0-4.094-.006C91.2 39.257 56.465 58.88 21.712 78.454c-1.42.646-2.373 2.071-2.204 3.653.006 39.245 0 78.497 0 117.748a3.329 3.329 0 0 0 1.89 3.303c9.274 5.259 18.56 10.481 27.84 15.722 5.228 2.814 11.647 4.486 17.407 2.33 5.083-1.823 8.646-7.01 8.549-12.407.048-39.016-.024-78.038.036-117.048-.127-1.732 1.516-3.163 3.2-3 4.456-.03 8.918-.06 13.374.012 1.86-.042 3.14 1.823 2.91 3.568-.018 39.263.048 78.527-.03 117.79.012 10.464-4.287 21.85-13.966 26.97-11.924 6.177-26.662 4.867-38.442-1.056-10.198-5.09-19.93-11.097-29.947-16.55C5.368 215.886.555 208.357.604 200.466V81.497c-.073-7.74 4.504-15.197 11.29-18.85C46.768 42.966 81.636 23.27 116.504 3.58z"/><path d="M146.928 85.99c15.21-.979 31.493-.58 45.18 6.913 10.597 5.742 16.472 17.793 16.659 29.566-.296 1.588-1.956 2.464-3.472 2.355-4.413-.006-8.827.06-13.24-.03-1.872.072-2.96-1.654-3.195-3.309-1.268-5.633-4.34-11.212-9.642-13.929-8.139-4.075-17.576-3.87-26.451-3.785-6.479.344-13.446.905-18.935 4.715-4.214 2.886-5.494 8.712-3.99 13.404 1.418 3.369 5.307 4.456 8.489 5.458 18.33 4.794 37.754 4.317 55.734 10.626 7.444 2.572 14.726 7.572 17.274 15.366 3.333 10.446 1.872 22.932-5.56 31.318-6.027 6.901-14.805 10.657-23.56 12.697-11.647 2.597-23.734 2.663-35.562 1.51-11.122-1.268-22.696-4.19-31.282-11.768-7.342-6.375-10.928-16.308-10.572-25.895.085-1.619 1.697-2.748 3.248-2.615 4.444-.036 8.888-.048 13.332.006 1.775-.127 3.091 1.407 3.182 3.08.82 5.367 2.837 11 7.517 14.182 9.032 5.827 20.365 5.428 30.707 5.591 8.568-.38 18.186-.495 25.178-6.158 3.689-3.23 4.782-8.634 3.785-13.283-1.08-3.925-5.186-5.754-8.712-6.95-18.095-5.724-37.736-3.647-55.656-10.12-7.275-2.571-14.31-7.432-17.105-14.906-3.9-10.578-2.113-23.662 6.098-31.765 8.006-8.06 19.563-11.164 30.551-12.275z"/></g></g></svg><svg viewBox="0 0 255.68193 263.66534"><g id="src-9" class="icon"><path d="M255.008 158.086c-1.535-4.649-5.556-7.887-10.756-8.664-2.452-.366-5.26-.21-8.583.475-5.792 1.195-10.089 1.65-13.225 1.738 11.837-19.985 21.462-42.775 27.003-64.228 8.96-34.689 4.172-50.492-1.423-57.64C233.217 10.847 211.614.683 185.552.372c-13.903-.17-26.108 2.575-32.475 4.549-5.928-1.046-12.302-1.63-18.99-1.738-12.537-.2-23.614 2.533-33.079 8.15-5.24-1.772-13.65-4.27-23.362-5.864-22.842-3.75-41.252-.828-54.718 8.685C6.622 25.672-.937 45.684.461 73.634c.444 8.874 5.408 35.874 13.224 61.48 4.492 14.718 9.282 26.94 14.237 36.33 7.027 13.315 14.546 21.156 22.987 23.972 4.731 1.576 13.327 2.68 22.368-4.85 1.146 1.388 2.675 2.767 4.704 4.048 2.577 1.625 5.728 2.953 8.875 3.74 11.341 2.835 21.964 2.126 31.027-1.848.056 1.612.099 3.152.135 4.482.06 2.157.12 4.272.199 6.25.537 13.374 1.447 23.773 4.143 31.049.148.4.347 1.01.557 1.657 1.345 4.118 3.594 11.012 9.316 16.411 5.925 5.593 13.092 7.308 19.656 7.308 3.292 0 6.433-.432 9.188-1.022 9.82-2.105 20.973-5.311 29.041-16.799 7.628-10.86 11.336-27.217 12.007-52.99.087-.729.167-1.425.244-2.088l.16-1.362 1.797.158.463.031c10.002.456 22.232-1.665 29.743-5.154 5.935-2.754 24.954-12.795 20.476-26.351"/><path d="M237.906 160.722c-29.74 6.135-31.785-3.934-31.785-3.934 31.4-46.593 44.527-105.736 33.2-120.211-30.904-39.485-84.399-20.811-85.292-20.327l-.287.052c-5.876-1.22-12.451-1.946-19.842-2.067-13.456-.22-23.664 3.528-31.41 9.402 0 0-95.43-39.314-90.991 49.444.944 18.882 27.064 142.873 58.218 105.422 11.387-13.695 22.39-25.274 22.39-25.274 5.464 3.63 12.006 5.482 18.864 4.817l.533-.452c-.166 1.7-.09 3.363.213 5.332-8.026 8.967-5.667 10.541-21.711 13.844-16.235 3.346-6.698 9.302-.471 10.86 7.549 1.887 25.013 4.561 36.813-11.958l-.47 1.885c3.144 2.519 5.352 16.383 4.982 28.952-.37 12.568-.617 21.197 1.86 27.937 2.479 6.74 4.948 21.905 26.04 17.386 17.623-3.777 26.756-13.564 28.027-29.89.901-11.606 2.942-9.89 3.07-20.267l1.637-4.912c1.887-15.733.3-20.809 11.157-18.448l2.64.232c7.99.363 18.45-1.286 24.589-4.139 13.218-6.134 21.058-16.377 8.024-13.686h.002" fill="#336791"/><path d="M108.076 81.525c-2.68-.373-5.107-.028-6.335.902-.69.523-.904 1.129-.962 1.546-.154 1.105.62 2.327 1.096 2.957 1.346 1.784 3.312 3.01 5.258 3.28.282.04.563.058.842.058 3.245 0 6.196-2.527 6.456-4.392.325-2.336-3.066-3.893-6.355-4.35M196.86 81.599c-.256-1.831-3.514-2.353-6.606-1.923-3.088.43-6.082 1.824-5.832 3.659.2 1.427 2.777 3.863 5.827 3.863.258 0 .518-.017.78-.054 2.036-.282 3.53-1.575 4.24-2.32 1.08-1.136 1.706-2.402 1.591-3.225" fill="#FFF"/><path d="M247.802 160.025c-1.134-3.429-4.784-4.532-10.848-3.28-18.005 3.716-24.453 1.142-26.57-.417 13.995-21.32 25.508-47.092 31.719-71.137 2.942-11.39 4.567-21.968 4.7-30.59.147-9.463-1.465-16.417-4.789-20.665-13.402-17.125-33.072-26.311-56.882-26.563-16.369-.184-30.199 4.005-32.88 5.183-5.646-1.404-11.801-2.266-18.502-2.376-12.288-.199-22.91 2.743-31.704 8.74-3.82-1.422-13.692-4.811-25.765-6.756-20.872-3.36-37.458-.814-49.294 7.571-14.123 10.006-20.643 27.892-19.38 53.16.425 8.501 5.269 34.653 12.913 59.698 10.062 32.964 21 51.625 32.508 55.464 1.347.449 2.9.763 4.613.763 4.198 0 9.345-1.892 14.7-8.33a529.832 529.832 0 0 1 20.261-22.926c4.524 2.428 9.494 3.784 14.577 3.92.01.133.023.266.035.398a117.66 117.66 0 0 0-2.57 3.175c-3.522 4.471-4.255 5.402-15.592 7.736-3.225.666-11.79 2.431-11.916 8.435-.136 6.56 10.125 9.315 11.294 9.607 4.074 1.02 7.999 1.523 11.742 1.523 9.103 0 17.114-2.992 23.516-8.781-.197 23.386.778 46.43 3.586 53.451 2.3 5.748 7.918 19.795 25.664 19.794 2.604 0 5.47-.303 8.623-.979 18.521-3.97 26.564-12.156 29.675-30.203 1.665-9.645 4.522-32.676 5.866-45.03 2.836.885 6.487 1.29 10.434 1.289 8.232 0 17.731-1.749 23.688-4.514 6.692-3.108 18.768-10.734 16.578-17.36zm-44.106-83.48c-.061 3.647-.563 6.958-1.095 10.414-.573 3.717-1.165 7.56-1.314 12.225-.147 4.54.42 9.26.968 13.825 1.108 9.22 2.245 18.712-2.156 28.078a36.508 36.508 0 0 1-1.95-4.009c-.547-1.326-1.735-3.456-3.38-6.404-6.399-11.476-21.384-38.35-13.713-49.316 2.285-3.264 8.084-6.62 22.64-4.813zm-17.644-61.787c21.334.471 38.21 8.452 50.158 23.72 9.164 11.711-.927 64.998-30.14 110.969a171.33 171.33 0 0 0-.886-1.117l-.37-.462c7.549-12.467 6.073-24.802 4.759-35.738-.54-4.488-1.05-8.727-.92-12.709.134-4.22.692-7.84 1.232-11.34.663-4.313 1.338-8.776 1.152-14.037.139-.552.195-1.204.122-1.978-.475-5.045-6.235-20.144-17.975-33.81-6.422-7.475-15.787-15.84-28.574-21.482 5.5-1.14 13.021-2.203 21.442-2.016zM66.674 175.778c-5.9 7.094-9.974 5.734-11.314 5.288-8.73-2.912-18.86-21.364-27.791-50.624-7.728-25.318-12.244-50.777-12.602-57.916-1.128-22.578 4.345-38.313 16.268-46.769 19.404-13.76 51.306-5.524 64.125-1.347-.184.182-.376.352-.558.537-21.036 21.244-20.537 57.54-20.485 59.759-.002.856.07 2.068.168 3.735.362 6.105 1.036 17.467-.764 30.334-1.672 11.957 2.014 23.66 10.111 32.109a36.275 36.275 0 0 0 2.617 2.468c-3.604 3.86-11.437 12.396-19.775 22.426zm22.479-29.993c-6.526-6.81-9.49-16.282-8.133-25.99 1.9-13.592 1.199-25.43.822-31.79-.053-.89-.1-1.67-.127-2.285 3.073-2.725 17.314-10.355 27.47-8.028 4.634 1.061 7.458 4.217 8.632 9.645 6.076 28.103.804 39.816-3.432 49.229-.873 1.939-1.698 3.772-2.402 5.668l-.546 1.466c-1.382 3.706-2.668 7.152-3.465 10.424-6.938-.02-13.687-2.984-18.819-8.34zm1.065 37.9c-2.026-.506-3.848-1.385-4.917-2.114.893-.42 2.482-.992 5.238-1.56 13.337-2.745 15.397-4.683 19.895-10.394 1.031-1.31 2.2-2.794 3.819-4.602l.002-.002c2.411-2.7 3.514-2.242 5.514-1.412 1.621.67 3.2 2.702 3.84 4.938.303 1.056.643 3.06-.47 4.62-9.396 13.156-23.088 12.987-32.921 10.526zm69.799 64.952c-16.316 3.496-22.093-4.829-25.9-14.346-2.457-6.144-3.665-33.85-2.808-64.447.011-.407-.047-.8-.159-1.17a15.444 15.444 0 0 0-.456-2.162c-1.274-4.452-4.379-8.176-8.104-9.72-1.48-.613-4.196-1.738-7.46-.903.696-2.868 1.903-6.107 3.212-9.614l.549-1.475c.618-1.663 1.394-3.386 2.214-5.21 4.433-9.848 10.504-23.337 3.915-53.81-2.468-11.414-10.71-16.988-23.204-15.693-7.49.775-14.343 3.797-17.761 5.53-.735.372-1.407.732-2.035 1.082.954-11.5 4.558-32.992 18.04-46.59 8.489-8.56 19.794-12.788 33.568-12.56 27.14.444 44.544 14.372 54.366 25.979 8.464 10.001 13.047 20.076 14.876 25.51-13.755-1.399-23.11 1.316-27.852 8.096-10.317 14.748 5.644 43.372 13.315 57.129 1.407 2.521 2.621 4.7 3.003 5.626 2.498 6.054 5.732 10.096 8.093 13.046.724.904 1.426 1.781 1.96 2.547-4.166 1.201-11.649 3.976-10.967 17.847-.55 6.96-4.461 39.546-6.448 51.059-2.623 15.21-8.22 20.875-23.957 24.25zm68.104-77.936c-4.26 1.977-11.389 3.46-18.161 3.779-7.48.35-11.288-.838-12.184-1.569-.42-8.644 2.797-9.547 6.202-10.503.535-.15 1.057-.297 1.561-.473.313.255.656.508 1.032.756 6.012 3.968 16.735 4.396 31.874 1.271l.166-.033c-2.042 1.909-5.536 4.471-10.49 6.772z" fill="#FFF"/></g></svg><svg viewBox="0 0 33.12726 40.003525"><g id="src-10" class="icon"><path d="M32.908 30.475L19.151 1.26a2.208 2.208 0 0 0-1.88-1.257 2.183 2.183 0 0 0-2.01 1.042L.34 25.212a2.26 2.26 0 0 0 .025 2.426L7.66 38.935a2.346 2.346 0 0 0 2.635.969l21.17-6.262a2.32 2.32 0 0 0 1.457-1.258 2.27 2.27 0 0 0-.013-1.91zm-3.08 1.253L11.864 37.04c-.548.163-1.074-.312-.96-.865l6.418-30.731c.12-.575.914-.666 1.165-.134l11.881 25.23a.858.858 0 0 1-.541 1.188z" clip-rule="evenodd" fill-rule="evenodd"/></g></svg><svg viewBox="0 0 666.3 514.89996"><g id="src-11" class="icon"><g fill="#61dafb"><path d="m666.3 296.5c0-32.5-40.7-63.3-103.1-82.4 14.4-63.6 8-114.2-20.2-130.4-6.5-3.8-14.1-5.6-22.4-5.6v22.3c4.6 0 8.3.9 11.4 2.6 13.6 7.8 19.5 37.5 14.9 75.7-1.1 9.4-2.9 19.3-5.1 29.4-19.6-4.8-41-8.5-63.5-10.9-13.5-18.5-27.5-35.3-41.6-50 32.6-30.3 63.2-46.9 84-46.9v-22.3c-27.5 0-63.5 19.6-99.9 53.6-36.4-33.8-72.4-53.2-99.9-53.2v22.3c20.7 0 51.4 16.5 84 46.6-14 14.7-28 31.4-41.3 49.9-22.6 2.4-44 6.1-63.6 11-2.3-10-4-19.7-5.2-29-4.7-38.2 1.1-67.9 14.6-75.8 3-1.8 6.9-2.6 11.5-2.6v-22.3c-8.4 0-16 1.8-22.6 5.6-28.1 16.2-34.4 66.7-19.9 130.1-62.2 19.2-102.7 49.9-102.7 82.3 0 32.5 40.7 63.3 103.1 82.4-14.4 63.6-8 114.2 20.2 130.4 6.5 3.8 14.1 5.6 22.5 5.6 27.5 0 63.5-19.6 99.9-53.6 36.4 33.8 72.4 53.2 99.9 53.2 8.4 0 16-1.8 22.6-5.6 28.1-16.2 34.4-66.7 19.9-130.1 62-19.1 102.5-49.9 102.5-82.3zm-130.2-66.7c-3.7 12.9-8.3 26.2-13.5 39.5-4.1-8-8.4-16-13.1-24-4.6-8-9.5-15.8-14.4-23.4 14.2 2.1 27.9 4.7 41 7.9zm-45.8 106.5c-7.8 13.5-15.8 26.3-24.1 38.2-14.9 1.3-30 2-45.2 2-15.1 0-30.2-.7-45-1.9-8.3-11.9-16.4-24.6-24.2-38-7.6-13.1-14.5-26.4-20.8-39.8 6.2-13.4 13.2-26.8 20.7-39.9 7.8-13.5 15.8-26.3 24.1-38.2 14.9-1.3 30-2 45.2-2 15.1 0 30.2.7 45 1.9 8.3 11.9 16.4 24.6 24.2 38 7.6 13.1 14.5 26.4 20.8 39.8-6.3 13.4-13.2 26.8-20.7 39.9zm32.3-13c5.4 13.4 10 26.8 13.8 39.8-13.1 3.2-26.9 5.9-41.2 8 4.9-7.7 9.8-15.6 14.4-23.7 4.6-8 8.9-16.1 13-24.1zm-101.4 106.7c-9.3-9.6-18.6-20.3-27.8-32 9 .4 18.2.7 27.5.7 9.4 0 18.7-.2 27.8-.7-9 11.7-18.3 22.4-27.5 32zm-74.4-58.9c-14.2-2.1-27.9-4.7-41-7.9 3.7-12.9 8.3-26.2 13.5-39.5 4.1 8 8.4 16 13.1 24s9.5 15.8 14.4 23.4zm73.9-208.1c9.3 9.6 18.6 20.3 27.8 32-9-.4-18.2-.7-27.5-.7-9.4 0-18.7.2-27.8.7 9-11.7 18.3-22.4 27.5-32zm-74 58.9c-4.9 7.7-9.8 15.6-14.4 23.7-4.6 8-8.9 16-13 24-5.4-13.4-10-26.8-13.8-39.8 13.1-3.1 26.9-5.8 41.2-7.9zm-90.5 125.2c-35.4-15.1-58.3-34.9-58.3-50.6s22.9-35.6 58.3-50.6c8.6-3.7 18-7 27.7-10.1 5.7 19.6 13.2 40 22.5 60.9-9.2 20.8-16.6 41.1-22.2 60.6-9.9-3.1-19.3-6.5-28-10.2zm53.8 142.9c-13.6-7.8-19.5-37.5-14.9-75.7 1.1-9.4 2.9-19.3 5.1-29.4 19.6 4.8 41 8.5 63.5 10.9 13.5 18.5 27.5 35.3 41.6 50-32.6 30.3-63.2 46.9-84 46.9-4.5-.1-8.3-1-11.3-2.7zm237.2-76.2c4.7 38.2-1.1 67.9-14.6 75.8-3 1.8-6.9 2.6-11.5 2.6-20.7 0-51.4-16.5-84-46.6 14-14.7 28-31.4 41.3-49.9 22.6-2.4 44-6.1 63.6-11 2.3 10.1 4.1 19.8 5.2 29.1zm38.5-66.7c-8.6 3.7-18 7-27.7 10.1-5.7-19.6-13.2-40-22.5-60.9 9.2-20.8 16.6-41.1 22.2-60.6 9.9 3.1 19.3 6.5 28.1 10.2 35.4 15.1 58.3 34.9 58.3 50.6-.1 15.7-23 35.6-58.4 50.6z"/><circle cx="420.9" cy="296.5" r="45.7"/></g></g></svg></svg>